<svg width="179" height="141" viewBox="0 0 179 141" fill="none" xmlns="http://www.w3.org/2000/svg">
<g clip-path="url(#clip0_76_249)">
<path d="M178.715 140.927L0.282928 141C0.207816 141 0.135856 140.97 0.0828199 140.916C0.0297842 140.863 0 140.791 0 140.716C0 140.64 0.0297842 140.568 0.0828199 140.515C0.135856 140.462 0.207816 140.432 0.282928 140.431L178.715 140.358C178.791 140.358 178.863 140.388 178.916 140.441C178.969 140.495 178.998 140.567 178.998 140.642C178.998 140.717 178.969 140.79 178.916 140.843C178.863 140.896 178.791 140.926 178.715 140.927Z" fill="#CACACA"/>
<path d="M143.854 134.896V119.516C143.854 119.205 143.977 118.907 144.197 118.687C144.417 118.466 144.715 118.343 145.025 118.342H156.617C156.928 118.343 157.226 118.466 157.446 118.687C157.665 118.907 157.789 119.205 157.789 119.516V134.896C157.789 135.207 157.665 135.505 157.446 135.726C157.226 135.946 156.928 136.07 156.617 136.07H145.025C144.715 136.07 144.417 135.946 144.197 135.726C143.977 135.505 143.854 135.207 143.854 134.896Z" fill="#E6E6E6"/>
<path d="M144.742 130.251V120.363C144.743 120.072 144.858 119.792 145.064 119.586C145.27 119.38 145.549 119.264 145.84 119.264H155.802C156.093 119.264 156.372 119.38 156.578 119.586C156.783 119.792 156.899 120.072 156.899 120.363V134.049C156.899 134.34 156.783 134.62 156.578 134.826C156.372 135.032 156.093 135.148 155.802 135.148H149.631C148.335 135.147 147.092 134.63 146.176 133.712C145.259 132.794 144.744 131.549 144.742 130.251Z" fill="white"/>
<path d="M146.355 123.122C146.356 122.837 146.469 122.564 146.67 122.362C146.871 122.161 147.144 122.048 147.428 122.047H154.339C154.623 122.047 154.896 122.161 155.097 122.362C155.298 122.564 155.411 122.837 155.411 123.122C155.411 123.407 155.298 123.68 155.097 123.882C154.896 124.083 154.623 124.196 154.339 124.196H147.428C147.144 124.196 146.871 124.083 146.67 123.881C146.469 123.68 146.356 123.407 146.355 123.122Z" fill="#E6E6E6"/>
<path d="M146.355 126.465C146.356 126.18 146.469 125.907 146.67 125.705C146.871 125.504 147.144 125.391 147.428 125.39H154.339C154.623 125.39 154.896 125.504 155.097 125.705C155.298 125.907 155.411 126.18 155.411 126.465C155.411 126.75 155.298 127.023 155.097 127.225C154.896 127.426 154.623 127.539 154.339 127.539H147.428C147.144 127.539 146.871 127.426 146.67 127.224C146.469 127.023 146.356 126.75 146.355 126.465Z" fill="#E6E6E6"/>
<path d="M146.355 129.808C146.356 129.523 146.469 129.25 146.67 129.048C146.871 128.847 147.144 128.733 147.428 128.733H154.339C154.623 128.733 154.896 128.846 155.097 129.048C155.298 129.249 155.411 129.523 155.411 129.808C155.411 130.093 155.298 130.366 155.097 130.567C154.896 130.769 154.623 130.882 154.339 130.882H147.428C147.144 130.882 146.871 130.769 146.67 130.567C146.469 130.366 146.356 130.093 146.355 129.808Z" fill="#E6E6E6"/>
<path d="M146.003 55.2167C141.637 62.3596 137.288 76.5146 131.228 77.0116C123.095 77.6787 116.453 63.3928 116.453 55.2167C116.453 51.2904 118.01 47.5249 120.781 44.7486C123.551 41.9723 127.31 40.4126 131.228 40.4126C139.388 40.4126 150.265 48.2444 146.003 55.2167Z" fill="#CCCCCC"/>
<path d="M133.253 79.605C131.86 79.605 130.481 79.8798 129.195 80.4138C127.908 80.9478 126.739 81.7304 125.754 82.7171C124.77 83.7038 123.989 84.8751 123.456 86.1643C122.923 87.4534 122.648 88.8351 122.648 90.2305L129.083 122.585V137.236C128.405 137.397 127.8 137.783 127.368 138.33C126.935 138.878 126.7 139.556 126.7 140.254H132.419V122.585H136.232V137.19C135.502 137.304 134.837 137.675 134.356 138.237C133.875 138.799 133.611 139.514 133.611 140.254H139.568V122.585L143.858 90.2305C143.858 88.8351 143.583 87.4534 143.051 86.1643C142.518 84.8751 141.736 83.7038 140.752 82.7171C139.767 81.7304 138.598 80.9478 137.311 80.4138C136.025 79.8798 134.646 79.605 133.253 79.605Z" fill="#CCCCCC"/>
<path d="M102.928 87.8559C102.134 87.0619 100.7 86.5295 99.0571 86.5295C96.5565 86.5295 94.5293 87.7589 94.5293 89.2755C94.5293 90.792 96.5565 92.0214 99.0571 92.0214C100.214 92.0471 101.355 91.7472 102.35 91.156L102.349 91.17L127.274 92.403L127.606 89.0768L102.928 87.8559Z" fill="#CCCCCC"/>
<path d="M142.253 114.772C141.675 115.735 141.506 117.258 141.902 118.856C142.506 121.287 144.186 122.961 145.655 122.595C147.124 122.229 147.825 119.961 147.221 117.53C146.967 116.399 146.401 115.362 145.588 114.537L145.602 114.534L140.778 90.0015L137.477 90.4816L142.253 114.772Z" fill="#CCCCCC"/>
<path d="M134.519 48.896C134.849 47.5259 133.79 46.2753 132.544 45.8582C130.897 45.3072 129.175 46.081 127.577 46.4329C126.754 46.6143 125.88 46.7053 125.068 46.4234C124.461 46.1987 123.936 45.7955 123.562 45.2666C122.676 44.0465 122.631 42.4928 123.096 41.0977C124.004 38.3766 126.562 36.3949 129.313 35.8134C132.612 35.116 135.806 36.7688 138.774 37.9897L141.639 39.1681C142.515 39.5288 143.412 39.8614 144.26 40.2873C145.622 40.9713 147.168 42.3342 146.608 44.045C146.465 44.4841 147.155 44.6723 147.298 44.2355C147.788 42.7372 146.908 41.2282 145.731 40.3447C145.075 39.8825 144.365 39.5029 143.616 39.2144C142.766 38.8564 141.91 38.511 141.057 38.1601C139.292 37.4338 137.535 36.6756 135.753 35.9919C134.153 35.3785 132.464 34.8771 130.735 34.9276C129.272 34.9804 127.842 35.376 126.56 36.0827C125.278 36.7893 124.178 37.7873 123.351 38.9966C122.427 40.3709 121.878 42.0715 122.157 43.7325C122.381 45.0653 123.238 46.3678 124.478 46.9505C126.345 47.8275 128.291 46.8901 130.153 46.5188C131.049 46.3403 132.049 46.2894 132.854 46.7893C133.495 47.1875 134.018 47.9222 133.83 48.7055C133.722 49.1535 134.411 49.3447 134.519 48.896Z" fill="#3F3D56"/>
<path d="M97.7318 89.1589C95.2018 89.1843 92.6738 89.0086 90.1715 88.6335C87.5521 88.1893 86.332 87.5285 86.332 86.5533L86.3338 86.5146L90.628 53.746L88.4938 47.6161C88.3777 47.289 88.3429 46.9385 88.3925 46.595C88.442 46.2514 88.5745 45.9251 88.7783 45.6444C88.977 45.3582 89.2436 45.1261 89.5542 44.969C89.8649 44.8118 90.2096 44.7347 90.5574 44.7445L104.81 44.8931C105.15 44.8966 105.484 44.9805 105.785 45.138C106.086 45.2955 106.346 45.522 106.543 45.7992C106.74 46.0764 106.87 46.3964 106.92 46.733C106.97 47.0697 106.94 47.4135 106.833 47.7364L104.835 53.7421L109.131 86.5123V86.5279C109.131 87.584 107.757 88.2733 104.805 88.7098C102.46 89.017 100.097 89.1671 97.7318 89.1589ZM90.5093 45.2214C90.2454 45.2213 89.9855 45.285 89.7515 45.4071C89.5175 45.5292 89.3165 45.7062 89.1654 45.923C89.0066 46.1416 88.9035 46.3958 88.8649 46.6634C88.8263 46.931 88.8534 47.204 88.9439 47.4588L91.1153 53.6958L91.1079 53.752L86.808 86.5584L86.8083 86.5661C86.8086 87.0213 87.4058 87.6803 90.251 88.1625C92.727 88.5333 95.2284 88.7068 97.7318 88.6813C100.074 88.6896 102.414 88.5412 104.736 88.2373C107.975 87.7584 108.654 87.0502 108.654 86.5407L104.348 53.6952L106.381 47.5853C106.464 47.3338 106.488 47.066 106.448 46.8037C106.409 46.5415 106.309 46.2923 106.155 46.0764C106.001 45.8605 105.799 45.684 105.564 45.5614C105.33 45.4388 105.07 45.3734 104.805 45.3707L90.5494 45.2219C90.536 45.2216 90.5227 45.2214 90.5093 45.2214Z" fill="#3F3D56"/>
<path opacity="0.5" d="M105.858 82.5395H89.6055L92.1819 65.0835L92.2521 64.6024L93.3254 57.3354C93.3909 56.8921 93.9002 57.2363 94.2603 56.9706C96.4963 55.3208 98.759 55.273 101.041 56.8631C101.394 57.1089 101.881 56.8212 101.947 57.2467L103.075 64.5357L103.184 65.2408L105.858 82.5395Z" fill="#6C63FF"/>
<path d="M103.852 84.9838H91.5939C91.2725 84.9838 90.9549 84.9144 90.6628 84.7803C90.3706 84.6463 90.1106 84.4507 89.9007 84.2069C89.6907 83.9632 89.5357 83.6769 89.4461 83.3677C89.3565 83.0584 89.3345 82.7335 89.3815 82.415L92.963 58.1488C92.9814 58.0247 93.0323 57.9078 93.1104 57.8097C93.1885 57.7117 93.2911 57.636 93.4078 57.5905C93.5244 57.5449 93.651 57.531 93.7747 57.5502C93.8985 57.5695 94.0149 57.6211 94.1123 57.6999C96.2951 59.4519 98.674 59.4124 101.183 57.5832C101.28 57.5119 101.394 57.4671 101.514 57.4532C101.634 57.4392 101.755 57.4565 101.866 57.5035C101.979 57.5501 102.079 57.6254 102.154 57.7219C102.23 57.8184 102.279 57.933 102.298 58.0543L106.062 82.3998C106.112 82.7193 106.091 83.0457 106.003 83.3566C105.915 83.6676 105.76 83.9556 105.55 84.2011C105.34 84.4466 105.08 84.6436 104.787 84.7787C104.494 84.9138 104.175 84.9838 103.852 84.9838Z" fill="#6C63FF"/>
<path d="M98.9196 82.1389H91.9551V82.5313H98.9196V82.1389Z" fill="white"/>
<path d="M98.9196 79.7844H91.9551V80.1768H98.9196V79.7844Z" fill="white"/>
<path d="M98.9196 77.4302H91.9551V77.8226H98.9196V77.4302Z" fill="white"/>
<path d="M98.9196 75.0757H91.9551V75.4681H98.9196V75.0757Z" fill="white"/>
<path d="M98.9196 72.7212H91.9551V73.1136H98.9196V72.7212Z" fill="white"/>
<path d="M103.512 66.5448C102.972 67.0822 102.322 67.4962 101.608 67.7583C100.893 68.0205 100.13 68.1245 99.3709 68.0634C98.5195 67.9602 97.6981 67.6845 96.9565 67.2531C96.1713 66.8312 95.4115 66.327 94.5421 66.0916C93.7804 65.8856 92.8776 65.8581 92.2236 66.3682C92.1701 66.4097 92.1049 66.433 92.0373 66.4348C91.9696 66.4366 91.9032 66.4167 91.8477 66.378L91.9221 65.8679C92.2852 65.6322 92.6928 65.4738 93.1196 65.4026C93.5464 65.3314 93.9833 65.3488 94.403 65.4539C96.1497 65.8071 97.4754 67.255 99.2651 67.463C100.037 67.5501 100.819 67.4437 101.54 67.1532C102.26 66.8628 102.898 66.3976 103.395 65.7992L103.397 65.7973L103.512 66.5448Z" fill="white"/>
<path d="M54.2545 11.7927C54.0124 17.062 49.9777 21.0341 44.7222 21.3438C39.0392 21.6786 33.9737 18.0229 35.1899 11.7927C36.5442 4.85478 39.5572 3.25919 44.7222 2.24171C50.775 1.04934 54.5161 6.09937 54.2545 11.7927Z" fill="#2F2E41"/>
<path d="M73.4841 48.7446C73.1808 48.9256 72.8416 49.0378 72.4904 49.0732C72.1391 49.1087 71.7844 49.0666 71.4512 48.9498C71.118 48.833 70.8144 48.6445 70.5618 48.3975C70.3091 48.1504 70.1136 47.8509 69.989 47.52L58.8417 49.6881L47.9395 45.2153L50.7225 40.7537L58.8503 44.8368L71.5503 44.319C72.1191 44.1462 72.7313 44.1883 73.2711 44.4376C73.8109 44.6868 74.2407 45.1257 74.479 45.6712C74.7174 46.2167 74.7477 46.8309 74.5643 47.3973C74.381 47.9637 73.9966 48.4431 73.4841 48.7446Z" fill="#FFB6B6"/>
<path d="M39.2047 39.6856C39.2047 39.6856 38.4565 40.7208 40.916 41.8432C42.885 42.7418 53.4607 48.4757 56.4266 48.9539C56.4562 49.3747 56.6248 49.7737 56.9057 50.088C57.1865 50.4022 57.5638 50.6139 57.978 50.6897L59.6525 44.6631C58.8983 43.464 58.0603 43.9007 57.6405 44.2654L54.386 41.6961L45.4282 36.0347L39.7323 38.9278L39.2047 39.6856Z" fill="#F2F2F2"/>
<path d="M54.731 26.3581L50.5671 25.6472L42.9282 29.146L38.6387 88.6012L52.1094 82.3591C54.2805 81.3531 56.7375 81.1516 59.043 81.7907C59.4402 81.9008 59.8585 81.9101 60.2602 81.8179C60.6619 81.7256 61.0344 81.5346 61.344 81.2621C61.6537 80.9896 61.8908 80.6442 62.034 80.257C62.1772 79.8698 62.2219 79.453 62.1643 79.0441L54.731 26.3581Z" fill="#F2F2F2"/>
<path d="M42.2422 135.063H45.5115L47.0672 122.428H42.2422V135.063Z" fill="#FFB6B6"/>
<path d="M40.5176 140.738H42.862L43.2805 138.52L44.3523 140.738H50.5704C50.8685 140.738 51.1587 140.642 51.3988 140.466C51.6389 140.289 51.8162 140.039 51.9049 139.754C51.9937 139.469 51.9891 139.163 51.8919 138.881C51.7947 138.598 51.6099 138.355 51.3647 138.185L46.3991 134.749V132.507L41.1761 132.819L40.5176 140.738Z" fill="#2F2E41"/>
<path d="M25.9512 128.092L28.5883 130.028L37.296 120.758L33.404 117.901L25.9512 128.092Z" fill="#FFB6B6"/>
<path d="M21.2109 131.648L23.1021 133.037L24.7479 131.496L24.3042 133.919L29.32 137.602C29.5604 137.778 29.8508 137.873 30.1489 137.873C30.4469 137.872 30.737 137.776 30.9768 137.599C31.2165 137.421 31.3933 137.171 31.4815 136.886C31.5696 136.601 31.5644 136.295 31.4666 136.013L29.4881 130.3L30.8107 128.492L26.4134 125.651L21.2109 131.648Z" fill="#2F2E41"/>
<path d="M54.222 77.1433C54.0408 79.66 50.9905 88.8433 50.9905 88.8433L50.4448 94.3973L48.891 110.221L47.211 127.322C44.6992 131.818 40.3906 128.755 40.3906 128.755V125.889C40.3906 125.889 40.0546 123.303 39.7162 120.025C39.2158 115.204 38.7082 108.884 39.242 107.064C39.1893 106.818 39.1496 106.57 39.1228 106.319C38.5747 102.06 37.2402 82.9623 39.1466 80.9207C36.2693 78.0486 34.5206 74.2342 34.2208 70.1758C34.1779 69.5861 34.1422 68.9676 34.1208 68.3253C33.9754 64.2661 36.7421 59.5097 37.824 57.8192C38.0862 57.4085 37.9444 56.7305 37.9444 56.7305L53.7894 63.0294L54.129 63.4925V65.4672L54.222 77.1433Z" fill="#35323E"/>
<path d="M50.4438 94.3973L48.89 110.221L39.7152 120.025L35.4161 124.619C30.6905 126.649 29.1367 121.589 29.1367 121.589L30.8787 119.318C30.8787 119.318 35.7688 110.878 39.1218 106.319C40.0488 105.061 40.859 104.096 41.4143 103.69C42.6678 102.778 46.4545 97.8214 50.01 92.979L50.4438 94.3973Z" fill="#35323E"/>
<path d="M33.7718 57.3278C33.7886 57.6793 33.861 58.0258 33.9862 58.3546C34.0005 58.3952 34.0148 58.4334 34.0315 58.474C34.3255 59.1782 34.8477 59.7628 35.5138 60.1334C35.7099 60.2441 35.9167 60.3345 36.131 60.4033L37.9874 60.7017L53.9516 63.259L54.5927 61.3273L53.3844 58.2997L54.1852 55.697L54.294 40.5394C56.1301 36.9219 56.4995 33.5177 54.3663 30.4775V30.4584L51.4661 25.8238L49.5358 22.894L43.3446 22.6958L42.4652 24.9307L40.7279 25.9718C36.8769 28.2784 35.49 32.5023 35.5734 36.9985C36.9007 42.1489 35.9237 47.8747 34.9347 54.0136L34.1268 55.6325C33.865 56.1577 33.7427 56.7415 33.7718 57.3278Z" fill="#6C63FF"/>
<path opacity="0.2" d="M33.7715 57.3279C33.7883 57.6794 33.8607 58.0259 33.986 58.3547L35.5135 60.1335C35.7096 60.2442 35.9164 60.3346 36.1307 60.4034L37.9871 60.7018L35.3014 55.6422L41.2043 42.6934L33.7715 57.3279Z" fill="black"/>
<path d="M48.2981 27.0745L42.4661 24.9309L34.8272 28.4297L35.1912 52.8622C32.9244 54.737 32.4679 57.4394 34.0973 61.0955L31.1513 83.267C31.0909 83.7216 31.1534 84.1842 31.3324 84.6063C31.5114 85.0284 31.8002 85.3947 32.1687 85.6667C32.5373 85.9388 32.972 86.1067 33.4274 86.1529C33.8828 86.1991 34.3422 86.1219 34.7577 85.9294L40.5696 83.2363C44.961 81.2014 49.9305 80.794 54.5936 82.0866L48.2981 27.0745Z" fill="#F2F2F2"/>
<path d="M38.8976 15.1183C39.1691 17.1025 40.2157 18.8977 41.8074 20.1092C43.3991 21.3207 45.4058 21.8495 47.3864 21.5794C49.367 21.3093 51.1596 20.2624 52.3703 18.6687C53.581 17.0751 54.1107 15.065 53.843 13.0802L53.8285 12.973C53.516 11.0148 52.4478 9.25828 50.8544 8.08217C49.261 6.90607 47.27 6.40468 45.3109 6.68617C43.3519 6.96766 41.5818 8.00946 40.3824 9.58685C39.1831 11.1642 38.6506 13.1508 38.8999 15.118L38.8976 15.1183Z" fill="#FFB8B8"/>
<path d="M56.6382 12.2703C54.9969 12.6815 53.2798 12.6815 51.6385 12.2703C51.5405 11.7793 51.3617 11.308 51.1094 10.8758C51.0773 11.3532 50.9745 11.8232 50.8044 12.2703C49.4279 13.2266 46.3094 12.7051 43.293 12.2703V4.62944H49.0123C53.8539 4.19468 57.3675 7.54827 56.6382 12.2703Z" fill="#2F2E41"/>
<path d="M42.1907 0.814004C41.7559 0.206797 40.8972 -0.0581754 40.1267 0.0106279C39.3725 0.112861 38.6527 0.390264 38.0246 0.820708C36.9499 1.48404 35.9819 2.30696 35.1538 3.26135C34.4394 4.08823 33.8332 5.23407 34.3933 6.19519C34.8606 6.99717 36.0019 7.30724 36.9492 7.12883C37.8964 6.95044 38.6883 6.39328 39.4216 5.82674C40.1549 5.26021 40.8868 4.65669 41.7917 4.35423L41.0619 4.29653C41.5582 3.84513 41.9726 3.31093 42.2867 2.71766C42.4378 2.41955 42.5085 2.08699 42.4917 1.75303C42.4749 1.41908 42.3711 1.09535 42.1907 0.814004Z" fill="#2F2E41"/>
<path d="M49.2513 5.82324H43.1154C41.4562 5.82324 39.8649 6.48365 38.6917 7.65919C37.5185 8.83473 36.8594 10.4291 36.8594 12.0916C36.8596 14.5128 37.7609 16.8471 39.3871 18.6381C41.0132 20.4291 43.2475 21.5482 45.6532 21.7768L43.532 15.613L47.6274 21.8212H49.2513C43.7126 17.1905 45.266 11.661 49.2513 5.82324Z" fill="#2F2E41"/>
<path d="M68.2088 138.146C67.4095 138.154 66.6108 138.099 65.8203 137.98C65.0842 137.856 64.7109 137.678 64.7109 137.454L64.7112 137.45L66.0844 126.974L65.3928 124.988C65.3638 124.904 65.3552 124.815 65.3678 124.728C65.3804 124.64 65.4139 124.557 65.4653 124.485C65.5167 124.414 65.5846 124.355 65.6633 124.315C65.7419 124.276 65.829 124.255 65.9172 124.256L70.4652 124.304C70.5517 124.305 70.6368 124.326 70.7136 124.366C70.7903 124.406 70.8565 124.464 70.9067 124.534C70.9569 124.605 70.9898 124.687 71.0026 124.772C71.0155 124.858 71.0079 124.946 70.9805 125.028L70.3331 126.974L71.7064 137.45C71.7066 138 69.5079 138.146 68.2088 138.146Z" fill="#F2F2F2"/>
<path d="M67.8388 136.672H65.6172V136.797H67.8388V136.672Z" fill="#CCCCCC"/>
<path d="M67.8388 135.92H65.6172V136.046H67.8388V135.92Z" fill="#CCCCCC"/>
<path d="M67.8388 135.169H65.6172V135.295H67.8388V135.169Z" fill="#CCCCCC"/>
<path d="M67.8388 134.418H65.6172V134.544H67.8388V134.418Z" fill="#CCCCCC"/>
<path d="M67.8388 133.667H65.6172V133.793H67.8388V133.667Z" fill="#CCCCCC"/>
<path d="M88.1971 138.146C87.3978 138.154 86.5991 138.099 85.8086 137.98C85.0725 137.856 84.6992 137.678 84.6992 137.454L84.6995 137.45L86.0727 126.974L85.3811 124.988C85.352 124.904 85.3435 124.815 85.3561 124.728C85.3687 124.64 85.4021 124.557 85.4536 124.485C85.505 124.414 85.5729 124.355 85.6516 124.315C85.7302 124.276 85.8173 124.255 85.9054 124.256L90.4535 124.304C90.54 124.305 90.6251 124.326 90.7018 124.366C90.7786 124.406 90.8447 124.464 90.895 124.534C90.9452 124.605 90.9781 124.687 90.9909 124.772C91.0038 124.858 90.9962 124.946 90.9688 125.028L90.3214 126.974L91.6946 137.45C91.6949 138 89.4962 138.146 88.1971 138.146Z" fill="#F2F2F2"/>
<path d="M87.827 136.672H85.6055V136.797H87.827V136.672Z" fill="#CCCCCC"/>
<path d="M87.827 135.92H85.6055V136.046H87.827V135.92Z" fill="#CCCCCC"/>
<path d="M87.827 135.169H85.6055V135.295H87.827V135.169Z" fill="#CCCCCC"/>
<path d="M87.827 134.418H85.6055V134.544H87.827V134.418Z" fill="#CCCCCC"/>
<path d="M87.827 133.667H85.6055V133.793H87.827V133.667Z" fill="#CCCCCC"/>
<path d="M78.8279 138.146C78.0286 138.154 77.23 138.099 76.4394 137.98C75.7033 137.856 75.3301 137.678 75.3301 137.454L75.3304 137.45L76.7035 126.974L76.0119 124.988C75.9829 124.904 75.9743 124.815 75.987 124.728C75.9996 124.64 76.033 124.557 76.0844 124.485C76.1359 124.414 76.2038 124.355 76.2824 124.315C76.3611 124.276 76.4481 124.255 76.5363 124.256L81.0843 124.304C81.1709 124.305 81.256 124.326 81.3327 124.366C81.4094 124.406 81.4756 124.464 81.5258 124.534C81.5761 124.605 81.609 124.687 81.6218 124.772C81.6346 124.858 81.627 124.946 81.5997 125.028L80.9523 126.974L82.3255 137.45C82.3258 138 80.1271 138.146 78.8279 138.146Z" fill="#F2F2F2"/>
<path d="M78.4579 136.672H76.2363V136.797H78.4579V136.672Z" fill="#CCCCCC"/>
<path d="M78.4579 135.92H76.2363V136.046H78.4579V135.92Z" fill="#CCCCCC"/>
<path d="M78.4579 135.169H76.2363V135.295H78.4579V135.169Z" fill="#CCCCCC"/>
<path d="M78.4579 134.418H76.2363V134.544H78.4579V134.418Z" fill="#CCCCCC"/>
<path d="M78.4579 133.667H76.2363V133.793H78.4579V133.667Z" fill="#CCCCCC"/>
<path d="M93.599 138.925H89.3516V131.79H93.599C93.8306 131.79 94.0527 131.697 94.2164 131.533C94.3801 131.369 94.472 131.146 94.472 130.914C94.472 130.682 94.3801 130.459 94.2164 130.295C94.0527 130.13 93.8306 130.038 93.599 130.038H63.9922C63.7605 130.038 63.5384 130.13 63.3748 130.295C63.2111 130.459 63.1191 130.682 63.1191 130.914C63.1191 131.146 63.2111 131.369 63.3748 131.533C63.5384 131.697 63.7605 131.79 63.9922 131.79H67.6149V138.925H63.9922C63.7605 138.925 63.5384 139.017 63.3748 139.182C63.2111 139.346 63.1191 139.569 63.1191 139.801C63.1191 140.033 63.2111 140.256 63.3748 140.42C63.5384 140.584 63.7605 140.677 63.9922 140.677H93.599C93.8306 140.677 94.0527 140.584 94.2164 140.42C94.3801 140.256 94.472 140.033 94.472 139.801C94.472 139.569 94.3801 139.346 94.2164 139.182C94.0527 139.017 93.8306 138.925 93.599 138.925ZM69.3639 138.925V131.79H87.6027V138.925H69.3639Z" fill="#CCCCCC"/>
<path d="M55.502 81.9124V66.533C55.5023 66.2217 55.6259 65.9233 55.8456 65.7032C56.0652 65.483 56.3631 65.3592 56.6737 65.3589H68.2658C68.5765 65.3592 68.8743 65.483 69.094 65.7032C69.3137 65.9233 69.4372 66.2217 69.4376 66.533V81.9124C69.4372 82.2237 69.3137 82.5221 69.094 82.7422C68.8743 82.9623 68.5765 83.0861 68.2658 83.0865H56.6737C56.3631 83.0861 56.0652 82.9623 55.8456 82.7422C55.6259 82.5221 55.5023 82.2237 55.502 81.9124Z" fill="#E6E6E6"/>
<path d="M56.3906 77.2674V67.3801C56.3909 67.0886 56.5067 66.8091 56.7124 66.6029C56.9181 66.3968 57.1971 66.2808 57.488 66.2805H67.4504C67.7414 66.2808 68.0204 66.3968 68.2261 66.6029C68.4318 66.8091 68.5476 67.0886 68.5479 67.3801V81.0657C68.5476 81.3572 68.4318 81.6367 68.2261 81.8428C68.0204 82.049 67.7414 82.1649 67.4504 82.1652H61.2789C59.9829 82.1638 58.7404 81.6473 57.824 80.7291C56.9076 79.8109 56.3921 78.5659 56.3906 77.2674Z" fill="white"/>
<path d="M58.0039 70.1387C58.0042 69.8538 58.1173 69.5807 58.3183 69.3793C58.5194 69.1778 58.792 69.0645 59.0763 69.0642H65.9872C66.2716 69.0642 66.5444 69.1774 66.7455 69.3789C66.9466 69.5804 67.0596 69.8537 67.0596 70.1387C67.0596 70.4237 66.9466 70.697 66.7455 70.8985C66.5444 71.1 66.2716 71.2132 65.9872 71.2132H59.0763C58.792 71.2129 58.5194 71.0996 58.3183 70.8981C58.1173 70.6967 58.0042 70.4236 58.0039 70.1387Z" fill="#E6E6E6"/>
<path d="M58.0039 73.4815C58.0042 73.1966 58.1173 72.9235 58.3183 72.722C58.5194 72.5206 58.792 72.4073 59.0763 72.407H65.9872C66.2716 72.407 66.5444 72.5202 66.7455 72.7217C66.9466 72.9232 67.0596 73.1965 67.0596 73.4815C67.0596 73.7664 66.9466 74.0397 66.7455 74.2413C66.5444 74.4428 66.2716 74.556 65.9872 74.556H59.0763C58.792 74.5557 58.5194 74.4423 58.3183 74.2409C58.1173 74.0395 58.0042 73.7664 58.0039 73.4815Z" fill="#E6E6E6"/>
<path d="M58.0039 76.8245C58.0042 76.5396 58.1173 76.2665 58.3183 76.0651C58.5194 75.8636 58.792 75.7503 59.0763 75.75H65.9872C66.2716 75.75 66.5444 75.8632 66.7455 76.0647C66.9466 76.2662 67.0596 76.5395 67.0596 76.8245C67.0596 77.1095 66.9466 77.3828 66.7455 77.5843C66.5444 77.7858 66.2716 77.899 65.9872 77.899H59.0763C58.792 77.8987 58.5194 77.7854 58.3183 77.5839C58.1173 77.3825 58.0042 77.1094 58.0039 76.8245Z" fill="#E6E6E6"/>
<path d="M55.6987 67.0157C55.3724 66.8806 55.0797 66.6755 54.8412 66.4147C54.6026 66.154 54.424 65.8441 54.3179 65.5068C54.2119 65.1694 54.1809 64.8129 54.2272 64.4622C54.2736 64.1116 54.3961 63.7754 54.5861 63.4773L46.181 55.8269L43.2324 44.3986L48.4654 43.9624L50.0651 52.9303L58.0799 62.8149C58.5584 63.1679 58.8912 63.6846 59.0149 64.2671C59.1387 64.8495 59.045 65.4572 58.7515 65.975C58.458 66.4928 57.9851 66.8847 57.4224 67.0765C56.8598 67.2683 56.2465 67.2467 55.6987 67.0157Z" fill="#FFB6B6"/>
<path d="M42.4258 34.0779C42.4258 34.0779 41.1504 34.0969 41.7249 36.7429C42.1848 38.8612 43.9297 50.7821 45.3223 53.449C45.0036 53.7246 44.7855 54.0987 44.7023 54.5123C44.6191 54.9258 44.6756 55.3553 44.8629 55.7332L50.6838 53.4705C51.1911 52.1474 50.3404 51.7361 49.7976 51.6174L49.9041 47.4673L49.0696 36.8885L43.3475 34.0479L42.4258 34.0779Z" fill="#F2F2F2"/>
</g>
<defs>
<clipPath id="clip0_76_249">
<rect width="179" height="141" fill="white"/>
</clipPath>
</defs>
</svg>
