<svg width="310" height="130" viewBox="0 0 310 130" fill="none" xmlns="http://www.w3.org/2000/svg">
<g clip-path="url(#clip0_76_352)">
<path d="M233.598 55.9109V31.703C233.598 29.2893 235.558 27.3257 237.969 27.3257H253.782C256.192 27.3257 258.153 29.2893 258.153 31.703V55.9109C258.153 58.3247 256.192 60.2883 253.782 60.2883H237.969C235.558 60.2883 233.598 58.3247 233.598 55.9109Z" fill="#6C63FF"/>
<path d="M241.695 37.79H250.055V35.6972H241.695V37.79Z" fill="#3F3D56"/>
<path d="M243.785 34.1274H247.965V27.3256H243.785V34.1274Z" fill="#3F3D56"/>
<path d="M243.785 60.2883H247.965V53.4865H243.785V60.2883Z" fill="#3F3D56"/>
<path d="M222.364 56.8892H198.191C195.781 56.8892 193.82 54.9256 193.82 52.5119V36.6754C193.82 34.2617 195.781 32.2981 198.191 32.2981H222.364C224.774 32.2981 226.735 34.2617 226.735 36.6754V52.5119C226.735 54.9256 224.774 56.8892 222.364 56.8892Z" fill="#6C63FF"/>
<path d="M214.98 35.699H206.621V37.7918H214.98V35.699Z" fill="#3F3D56"/>
<path d="M200.611 46.6865V42.5007H193.819V46.6865H200.611Z" fill="#3F3D56"/>
<path d="M226.734 46.6865V42.5007H219.943V46.6865H226.734Z" fill="#3F3D56"/>
<path d="M26.2824 102.157L22.247 78.583C20.4539 68.1078 28.1956 58.4144 38.7939 57.8647L96.3217 54.8808L110.051 32.2191C111.871 29.2148 115.126 27.3801 118.635 27.3801H159.97C163.219 27.3801 165.964 29.7931 166.386 33.0195L167.436 51.1524L270.489 51.4614L283.453 94.2473L271.42 93.6597L272.037 106.638L256.301 107.256L251.056 92.4015C250.068 89.6045 245.74 86.4507 241.241 83.8121C231.156 77.8969 218.198 79.7954 210.566 88.6601C208.766 90.7513 207.507 92.9301 207.155 94.9732L204.775 108.801L89.3795 106.947L74.2558 85.7599C69.7876 80.8904 48.695 79.1017 46.7955 85.7599L35.3844 102.621L26.2824 102.157Z" fill="#E6E6E6"/>
<path d="M151.703 41.1695L155.098 57.1983L111.902 58.1253L121.025 38.5086C121.853 36.729 123.67 35.6242 125.628 35.7094L146.327 36.6107C148.948 36.7248 151.159 38.6 151.703 41.1695Z" fill="white"/>
<path d="M106.04 56.8893L114.679 34.6416L112.417 32.3765L98.3262 53.7994L101.189 58.1253L106.04 56.8893Z" fill="white"/>
<path d="M229.766 129.194C241.013 129.194 250.13 120.064 250.13 108.8C250.13 97.5373 241.013 88.4067 229.766 88.4067C218.52 88.4067 209.402 97.5373 209.402 108.8C209.402 120.064 218.52 129.194 229.766 129.194Z" fill="#3F3D56"/>
<path d="M215.729 108.801C215.729 101.048 222.026 94.7412 229.767 94.7412C237.508 94.7412 243.806 101.048 243.806 108.801C243.806 116.553 237.508 122.86 229.767 122.86C222.026 122.86 215.729 116.553 215.729 108.801ZM216.037 108.801C216.037 116.382 222.196 122.551 229.767 122.551C237.338 122.551 243.497 116.382 243.497 108.801C243.497 101.219 237.338 95.0502 229.767 95.0502C222.196 95.0502 216.037 101.219 216.037 108.801Z" fill="white"/>
<path d="M217.732 108.801C217.732 115.456 223.12 120.851 229.766 120.851C236.411 120.851 241.799 115.456 241.799 108.801C241.799 102.145 236.411 96.7498 229.766 96.7498C223.12 96.7498 217.732 102.145 217.732 108.801ZM237.588 105.915L235.456 107.306L234.636 106.048L237.588 105.915ZM234.342 112.992L234.91 111.602L236.697 113.957L234.342 112.992ZM228.882 117.761L230.383 115.213V117.761H228.882ZM228.882 103.006L230.383 100.458V103.006H228.882ZM222.217 113.957L224.005 111.602L224.572 112.992L222.217 113.957ZM221.327 105.915L224.278 106.048L223.459 107.306L221.327 105.915Z" fill="#E6E6E6"/>
<path d="M58.8345 129.194C70.0812 129.194 79.1984 120.064 79.1984 108.8C79.1984 97.5373 70.0812 88.4067 58.8345 88.4067C47.5879 88.4067 38.4707 97.5373 38.4707 108.8C38.4707 120.064 47.5879 129.194 58.8345 129.194Z" fill="#3F3D56"/>
<path d="M44.7949 108.801C44.7949 101.048 51.0926 94.7412 58.8336 94.7412C66.5746 94.7412 72.8723 101.048 72.8723 108.801C72.8723 116.553 66.5746 122.86 58.8336 122.86C51.0926 122.86 44.7949 116.553 44.7949 108.801ZM45.1035 108.801C45.1035 116.382 51.2627 122.551 58.8336 122.551C66.4045 122.551 72.5638 116.382 72.5638 108.801C72.5638 101.219 66.4045 95.0502 58.8336 95.0502C51.2627 95.0502 45.1035 101.219 45.1035 108.801Z" fill="white"/>
<path d="M46.8008 108.801C46.8008 115.456 52.1882 120.851 58.834 120.851C65.4797 120.851 70.8671 115.456 70.8671 108.801C70.8671 102.145 65.4797 96.7498 58.834 96.7498C52.1882 96.7498 46.8008 102.145 46.8008 108.801ZM66.6559 105.915L64.5239 107.306L63.7048 106.048L66.6559 105.915ZM63.4101 112.992L63.9779 111.602L65.7657 113.957L63.4101 112.992ZM57.9509 117.761L59.451 115.213V117.761H57.9509ZM57.9509 103.006L59.451 100.458V103.006H57.9509ZM51.2851 113.957L53.0729 111.602L53.6407 112.992L51.2851 113.957ZM50.3949 105.915L53.3461 106.048L52.5269 107.306L50.3949 105.915Z" fill="#E6E6E6"/>
<path d="M143.838 65.3867H155.562V62.9148H143.838V65.3867Z" fill="#3F3D56"/>
<path d="M309.095 113.913C308.986 113.578 308.158 113.725 308.078 113.426C307.999 113.127 308.794 112.877 309.403 112.036C309.513 111.884 310.206 110.928 309.94 110.526C309.437 109.764 305.933 111.662 305.092 110.597C304.907 110.363 304.831 109.962 304.282 109.215C304.063 108.918 303.923 108.775 303.755 108.779C303.517 108.785 303.432 109.083 303.058 109.623C302.497 110.433 302.295 110.331 301.925 110.995C301.651 111.487 301.618 111.802 301.421 111.82C301.141 111.847 301.025 111.233 300.683 111.21C300.334 111.185 299.985 111.791 299.812 112.265C299.487 113.153 299.688 113.832 299.733 114.509C299.781 115.244 299.668 116.321 298.87 117.703L291.344 129.711C292.96 127.263 297.548 120.587 299.396 118.139C299.93 117.432 300.503 116.722 301.386 116.589C302.236 116.46 303.27 116.881 304.713 116.857C304.881 116.854 305.351 116.84 305.465 116.591C305.559 116.385 305.325 116.206 305.41 116.013C305.524 115.753 306.038 115.864 306.739 115.692C307.233 115.571 307.569 115.37 307.857 115.197C307.944 115.145 309.241 114.358 309.095 113.913Z" fill="#F2F2F2"/>
<path d="M289.384 116.716C289.188 116.673 289.021 117.123 288.852 117.076C288.682 117.028 288.789 116.566 288.553 116.023C288.51 115.925 288.242 115.309 287.968 115.324C287.449 115.351 287.368 117.621 286.604 117.727C286.436 117.751 286.217 117.672 285.693 117.727C285.484 117.749 285.373 117.776 285.327 117.86C285.261 117.979 285.383 118.107 285.539 118.446C285.774 118.955 285.666 119.026 285.885 119.399C286.047 119.676 286.192 119.782 286.144 119.885C286.076 120.03 285.742 119.91 285.632 120.071C285.519 120.236 285.715 120.582 285.897 120.804C286.239 121.22 286.63 121.317 286.974 121.49C287.349 121.679 287.844 122.045 288.291 122.836L292.004 130C291.271 128.499 289.323 124.318 288.656 122.703C288.464 122.237 288.282 121.75 288.471 121.278C288.653 120.823 289.158 120.436 289.562 119.72C289.609 119.636 289.738 119.402 289.649 119.274C289.575 119.168 289.42 119.231 289.349 119.134C289.255 119.003 289.458 118.782 289.576 118.388C289.659 118.11 289.657 117.887 289.656 117.695C289.656 117.637 289.644 116.773 289.384 116.716Z" fill="#F2F2F2"/>
<path d="M293.088 118.464L293.205 117.385L293.276 117.317C293.607 117.004 293.815 116.671 293.892 116.33C293.905 116.275 293.914 116.22 293.924 116.164C293.963 115.942 294.011 115.667 294.224 115.38C294.343 115.22 294.659 114.86 294.984 114.986C295.072 115.019 295.131 115.076 295.172 115.136C295.183 115.125 295.193 115.115 295.204 115.104C295.345 114.967 295.443 114.917 295.538 114.869C295.611 114.831 295.686 114.793 295.813 114.691C295.869 114.647 295.913 114.607 295.951 114.573C296.065 114.471 296.211 114.351 296.411 114.399C296.623 114.457 296.696 114.659 296.744 114.793C296.83 115.032 296.857 115.197 296.874 115.306C296.88 115.346 296.888 115.391 296.893 115.405C296.94 115.522 297.522 115.553 297.741 115.565C298.234 115.592 298.66 115.615 298.763 115.953C298.836 116.195 298.683 116.458 298.294 116.757C298.173 116.85 298.052 116.914 297.946 116.962C298.011 117.024 298.063 117.107 298.066 117.221C298.073 117.491 297.797 117.698 297.245 117.837C297.108 117.872 296.924 117.918 296.683 117.907C296.569 117.901 296.47 117.884 296.385 117.867C296.372 117.916 296.349 117.966 296.307 118.014C296.185 118.155 295.986 118.19 295.717 118.111C295.42 118.028 295.185 117.915 294.978 117.816C294.797 117.73 294.642 117.656 294.511 117.636C294.267 117.602 294.04 117.752 293.769 117.953L293.088 118.464Z" fill="#F2F2F2"/>
<path d="M295.031 112.317L293.959 112.477L293.876 112.425C293.489 112.184 293.116 112.067 292.766 112.079C292.71 112.081 292.655 112.085 292.598 112.09C292.374 112.109 292.095 112.132 291.764 111.998C291.58 111.923 291.151 111.709 291.191 111.362C291.2 111.269 291.24 111.197 291.288 111.142C291.275 111.134 291.263 111.127 291.249 111.119C291.081 111.017 291.008 110.935 290.937 110.855C290.883 110.794 290.827 110.731 290.696 110.634C290.639 110.591 290.589 110.558 290.547 110.53C290.419 110.446 290.267 110.334 290.262 110.129C290.264 109.909 290.441 109.787 290.558 109.706C290.768 109.562 290.92 109.495 291.021 109.45C291.057 109.434 291.099 109.415 291.112 109.406C291.213 109.332 291.094 108.76 291.051 108.544C290.952 108.06 290.866 107.641 291.167 107.456C291.381 107.324 291.675 107.405 292.062 107.707C292.183 107.8 292.276 107.901 292.349 107.991C292.392 107.913 292.459 107.842 292.568 107.81C292.827 107.734 293.097 107.949 293.371 108.448C293.44 108.572 293.531 108.739 293.581 108.976C293.605 109.087 293.613 109.188 293.619 109.274C293.669 109.274 293.723 109.284 293.78 109.312C293.947 109.395 294.032 109.578 294.024 109.859C294.019 110.168 293.969 110.424 293.926 110.65C293.889 110.847 293.857 111.017 293.871 111.149C293.9 111.393 294.103 111.575 294.365 111.787L295.031 112.317Z" fill="#F2F2F2"/>
<path d="M295.176 109.093L295.293 108.013L295.364 107.945C295.695 107.632 295.903 107.3 295.98 106.958C295.993 106.904 296.002 106.849 296.012 106.793C296.051 106.571 296.099 106.295 296.312 106.008C296.431 105.849 296.747 105.488 297.072 105.614C297.16 105.647 297.219 105.704 297.26 105.764C297.27 105.754 297.281 105.743 297.292 105.732C297.433 105.595 297.531 105.545 297.626 105.497C297.699 105.46 297.774 105.422 297.901 105.32C297.957 105.275 298.001 105.235 298.039 105.201C298.153 105.099 298.299 104.98 298.499 105.027C298.711 105.085 298.784 105.288 298.832 105.422C298.918 105.661 298.944 105.825 298.962 105.934C298.968 105.974 298.976 106.019 298.981 106.034C299.028 106.151 299.61 106.181 299.829 106.194C300.322 106.22 300.748 106.244 300.851 106.581C300.924 106.823 300.771 107.087 300.382 107.386C300.261 107.479 300.139 107.543 300.034 107.591C300.099 107.652 300.151 107.736 300.154 107.85C300.161 108.119 299.885 108.326 299.333 108.465C299.196 108.5 299.012 108.547 298.771 108.535C298.657 108.529 298.558 108.512 298.473 108.496C298.46 108.544 298.437 108.595 298.395 108.642C298.272 108.783 298.074 108.819 297.805 108.739C297.508 108.657 297.273 108.544 297.066 108.445C296.885 108.358 296.729 108.285 296.599 108.264C296.355 108.23 296.128 108.381 295.856 108.581L295.176 109.093Z" fill="#F2F2F2"/>
<path d="M291.7 129.772L291.51 129.585L291.247 129.557C291.248 129.532 291.246 129.474 291.244 129.383C291.234 128.887 291.203 127.376 291.413 125.054C291.559 123.433 291.804 121.788 292.141 120.163C292.479 118.536 292.829 117.325 293.11 116.352C293.322 115.618 293.536 114.922 293.746 114.244C294.304 112.432 294.831 110.721 295.157 108.769C295.23 108.333 295.382 107.426 295.071 106.355C294.891 105.734 294.582 105.15 294.154 104.619L294.569 104.283C295.042 104.87 295.383 105.518 295.583 106.207C295.927 107.394 295.762 108.382 295.682 108.857C295.35 110.844 294.818 112.572 294.254 114.401C294.046 115.077 293.833 115.77 293.622 116.501C293.343 117.465 292.996 118.665 292.663 120.271C292.33 121.877 292.088 123.502 291.943 125.102C291.736 127.395 291.767 128.883 291.777 129.372C291.782 129.633 291.783 129.688 291.7 129.772Z" fill="#F2F2F2"/>
<path d="M293.016 105.233C292.995 105.228 292.973 105.223 292.952 105.216C292.514 105.094 292.163 104.737 291.909 104.156C291.789 103.882 291.761 103.595 291.705 103.021C291.696 102.933 291.657 102.485 291.705 101.892C291.736 101.505 291.778 101.349 291.883 101.227C292 101.091 292.158 101.013 292.324 100.974C292.328 100.923 292.345 100.872 292.378 100.825C292.515 100.628 292.745 100.709 292.869 100.751C292.932 100.773 293.01 100.802 293.098 100.817C293.236 100.841 293.318 100.816 293.443 100.78C293.562 100.746 293.711 100.702 293.916 100.706C294.321 100.712 294.62 100.894 294.719 100.954C295.24 101.267 295.419 101.767 295.627 102.345C295.669 102.461 295.806 102.88 295.838 103.42C295.861 103.81 295.81 103.969 295.751 104.083C295.632 104.317 295.449 104.426 294.996 104.655C294.522 104.894 294.284 105.014 294.089 105.075C293.636 105.218 293.351 105.308 293.016 105.233Z" fill="#F2F2F2"/>
<path d="M0 129.309C0 129.513 0.285489 129.676 0.641001 129.676H306.645C307 129.676 307.286 129.513 307.286 129.309C307.286 129.105 307 128.941 306.645 128.941H0.641001C0.285489 128.941 0 129.105 0 129.309Z" fill="#CCCCCC"/>
<path d="M155.487 126.987L159.771 126.986L161.809 110.438L155.486 110.438L155.487 126.987Z" fill="#FFB6B6"/>
<path d="M170.165 126.89C170.298 127.115 170.368 127.841 170.368 128.102C170.368 128.907 169.718 129.558 168.914 129.558L155.647 129.558C155.1 129.558 154.655 129.114 154.655 128.565V128.012C154.655 128.012 153.999 126.349 155.35 124.3C155.35 124.3 157.03 125.905 159.539 123.392L160.279 122.049L165.636 125.972L168.605 126.338C169.255 126.419 169.831 126.326 170.165 126.89Z" fill="#2F2E41"/>
<path d="M136.239 126.987L140.523 126.986L142.561 110.438L136.238 110.438L136.239 126.987Z" fill="#FFB6B6"/>
<path d="M150.917 126.89C151.05 127.115 151.12 127.841 151.12 128.102C151.12 128.907 150.469 129.558 149.666 129.558L136.399 129.558C135.852 129.558 135.407 129.114 135.407 128.565V128.012C135.407 128.012 134.751 126.349 136.102 124.3C136.102 124.3 137.782 125.905 140.291 123.392L141.031 122.049L146.388 125.972L149.357 126.338C150.007 126.419 150.583 126.326 150.917 126.89Z" fill="#2F2E41"/>
<path d="M154.808 13.99L155.621 21.5918L146.133 20.7773L147.759 13.7185L154.808 13.99Z" fill="#FFB6B6"/>
<path opacity="0.1" d="M154.808 13.99L155.621 21.5918L146.133 20.7773L147.759 13.7185L154.808 13.99Z" fill="black"/>
<path d="M151.421 14.9401C154.864 14.9401 157.656 12.1444 157.656 8.69574C157.656 5.2471 154.864 2.45142 151.421 2.45142C147.977 2.45142 145.186 5.2471 145.186 8.69574C145.186 12.1444 147.977 14.9401 151.421 14.9401Z" fill="#FFB6B6"/>
<path d="M155.486 18.4695L165.923 24.5781L162.504 41.1391L164.839 63.4015L163.213 117.971L153.182 116.885L151.827 70.4603L143.965 118.514H134.225L135.832 66.6594L140.712 44.6685L137.73 20.7772L146.811 17.9265L155.486 18.4695Z" fill="#2F2E41"/>
<path d="M155.893 10.4606C155.893 10.4606 156.435 8.5601 157.655 8.69585C158.875 8.8316 159.146 7.74563 158.875 7.20265C158.604 6.65966 158.062 3.94474 158.062 3.94474C158.062 3.94474 158.333 2.04429 156.706 1.7728C155.08 1.5013 154.538 1.22981 154.267 0.686828C153.996 0.143842 149.929 -0.399141 148.574 0.415335C147.218 1.22981 146.134 2.7925 145.185 3.23287C144.236 3.67325 143.423 4.48772 143.965 5.84518C144.507 7.20264 145.294 9.85755 145.294 9.85755C145.294 9.85755 146.676 9.37458 146.947 10.1891C147.218 11.0035 146.134 9.91757 147.489 7.74563C148.845 5.57369 148.845 3.40175 151.014 4.21623C153.182 5.03071 155.622 4.75922 155.351 6.38817C155.08 8.01712 155.893 10.4606 155.893 10.4606Z" fill="#2F2E41"/>
<path d="M160.542 58.5312C159.237 59.9149 158.893 61.7107 159.772 62.5423C160.651 63.3738 162.422 62.926 163.727 61.5417C164.256 60.9959 164.647 60.3311 164.866 59.6031L170.321 53.6705L167.487 51.1663L162.41 57.2806C161.697 57.5421 161.056 57.9709 160.542 58.5312Z" fill="#FFB6B6"/>
<path d="M165.814 24.4424L175 40.1156L176.361 47.2708L167.515 58.5147L163.773 53.7446L168.195 47.2708L161.051 34.6641L165.814 24.4424Z" fill="#2F2E41"/>
<path d="M139.986 57.0719V38.5923C139.986 35.7757 142.274 33.4844 145.087 33.4844H173.294C176.106 33.4844 178.394 35.7757 178.394 38.5923V57.0719C178.394 59.8885 176.106 62.1798 173.294 62.1798H145.087C142.274 62.1798 139.986 59.8885 139.986 57.0719Z" fill="#6C63FF"/>
<path d="M153.703 45.1479H163.457V42.7058H153.703V45.1479Z" fill="#3F3D56"/>
<path d="M162.658 62.0162V57.1318H154.733V62.0162H162.658Z" fill="#3F3D56"/>
<path d="M163.031 38.5325V33.6482H155.106V38.5325H163.031Z" fill="#3F3D56"/>
<path d="M142.842 55.0019C144.146 56.3856 144.491 58.1815 143.612 59.013C142.732 59.8445 140.962 59.3967 139.657 58.0124C139.128 57.4666 138.737 56.8018 138.517 56.0738L133.062 50.1412L135.897 47.637L140.974 53.7513C141.687 54.0128 142.328 54.4416 142.842 55.0019Z" fill="#FFB6B6"/>
<path d="M137.568 20.9131L128.382 36.5863L127.021 43.7415L135.867 54.9854L139.61 50.2153L135.187 43.7415L142.332 31.1348L137.568 20.9131Z" fill="#2F2E41"/>
<path d="M23.3463 95.6478C27.9472 95.6478 31.677 92.3968 31.677 88.3864C31.677 84.376 27.9472 81.125 23.3463 81.125C18.7454 81.125 15.0156 84.376 15.0156 88.3864C15.0156 92.3968 18.7454 95.6478 23.3463 95.6478Z" fill="#E6E6E6"/>
</g>
<defs>
<clipPath id="clip0_76_352">
<rect width="310" height="130" fill="white"/>
</clipPath>
</defs>
</svg>
