<svg width="197" height="152" viewBox="0 0 197 152" fill="none" xmlns="http://www.w3.org/2000/svg">
<g clip-path="url(#clip0_76_313)">
<path d="M142.781 98.9386L117.275 85.7931C116.89 85.5943 116.6 85.2512 116.468 84.839C116.336 84.4268 116.374 83.9791 116.572 83.5942L118.149 80.5351C118.348 80.1507 118.691 79.8607 119.104 79.729C119.516 79.5972 119.964 79.6343 120.349 79.8322L145.856 92.9778C146.24 93.1765 146.531 93.5197 146.662 93.9319C146.794 94.3441 146.757 94.7918 146.559 95.1767L144.981 98.2358C144.883 98.4266 144.749 98.5961 144.585 98.7344C144.421 98.8728 144.231 98.9773 144.027 99.0419C143.865 99.0938 143.696 99.1203 143.527 99.1205C143.267 99.1203 143.012 99.0579 142.781 98.9386Z" fill="#6C63FF"/>
<path d="M135.005 86.6414C135.206 86.5629 135.421 86.5254 135.637 86.5311C135.854 86.5367 136.066 86.5854 136.263 86.6742L144.622 91.2943C145.537 91.7994 146.223 92.6365 146.538 93.6326C146.852 94.6287 146.773 95.7077 146.314 96.6465C145.877 97.5437 145.125 98.2493 144.201 98.6293C143.278 99.0094 142.247 99.0376 141.304 98.7086L132.239 95.5413C132.043 95.4547 131.865 95.3302 131.717 95.175C131.569 95.0199 131.453 94.837 131.376 94.637C131.298 94.4369 131.261 94.2236 131.266 94.0092C131.271 93.7947 131.319 93.5834 131.405 93.3873L134.101 87.5036C134.148 87.3971 134.206 87.2959 134.274 87.2017C134.458 86.9483 134.712 86.7537 135.005 86.6414Z" fill="#2F2E41"/>
<path d="M154.237 85.2299C161.133 85.2299 166.722 79.6422 166.722 72.7495C166.722 65.8567 161.133 60.269 154.237 60.269C147.342 60.269 141.752 65.8567 141.752 72.7495C141.752 79.6422 147.342 85.2299 154.237 85.2299Z" fill="#6C63FF"/>
<path d="M152.705 150.368V121.681C152.706 121.249 152.878 120.834 153.184 120.528C153.49 120.222 153.905 120.05 154.338 120.049H157.781C158.214 120.05 158.629 120.222 158.935 120.528C159.242 120.834 159.414 121.249 159.414 121.681V150.368C159.414 150.8 159.242 151.215 158.935 151.521C158.629 151.827 158.214 152 157.781 152H154.338C153.905 152 153.49 151.827 153.184 151.521C152.878 151.215 152.706 150.8 152.705 150.368Z" fill="#6C63FF"/>
<path d="M145.24 150.368V121.681C145.241 121.249 145.413 120.834 145.719 120.528C146.025 120.222 146.44 120.05 146.873 120.049H150.316C150.749 120.05 151.164 120.222 151.471 120.528C151.777 120.834 151.949 121.249 151.949 121.681V150.368C151.949 150.8 151.777 151.215 151.471 151.521C151.164 151.827 150.749 152 150.316 152H146.873C146.44 152 146.025 151.827 145.719 151.521C145.413 151.215 145.241 150.8 145.24 150.368Z" fill="#6C63FF"/>
<path d="M154.499 77.3751L154.512 76.9087C153.644 76.8846 152.879 76.8302 152.304 76.4102C152.141 76.2844 152.007 76.125 151.911 75.9428C151.815 75.7605 151.76 75.5598 151.748 75.3542C151.738 75.2286 151.757 75.1024 151.804 74.9853C151.851 74.8683 151.924 74.7635 152.017 74.6793C152.399 74.357 153.013 74.4613 153.461 74.6665L153.847 74.8435L153.107 69.4355L152.644 69.4989L153.274 74.099C152.666 73.9202 152.102 73.9972 151.716 74.3231C151.568 74.4524 151.452 74.6143 151.376 74.796C151.301 74.9778 151.269 75.1744 151.282 75.3707C151.296 75.6469 151.37 75.9167 151.499 76.1614C151.628 76.406 151.809 76.6195 152.029 76.7869C152.768 77.3266 153.728 77.3535 154.499 77.3751Z" fill="#2F2E41"/>
<path d="M150.359 69.8955H147.846V70.3619H150.359V69.8955Z" fill="#2F2E41"/>
<path d="M158.29 69.8955H155.777V70.3619H158.29V69.8955Z" fill="#2F2E41"/>
<path d="M166.184 126.428L161.866 98.0685C161.801 97.6405 161.909 97.2044 162.166 96.8559C162.422 96.5073 162.807 96.2747 163.235 96.2092L166.639 95.6912C167.067 95.6266 167.503 95.7343 167.852 95.9908C168.2 96.2473 168.433 96.6316 168.499 97.0594L172.817 125.419C172.882 125.847 172.774 126.283 172.517 126.632C172.261 126.98 171.876 127.213 171.448 127.278L168.044 127.796C167.832 127.829 167.616 127.819 167.408 127.768C167.199 127.717 167.003 127.625 166.831 127.498C166.658 127.371 166.512 127.211 166.401 127.027C166.29 126.844 166.216 126.64 166.184 126.428Z" fill="#6C63FF"/>
<path d="M162.848 108.226C162.666 108.109 162.51 107.957 162.387 107.779C162.265 107.601 162.179 107.4 162.135 107.188L160.965 97.7125C160.836 96.6758 161.111 95.6294 161.732 94.7894C162.353 93.9495 163.274 93.3802 164.303 93.1993C165.287 93.0263 166.3 93.2199 167.15 93.7435C168 94.2672 168.628 95.0845 168.916 96.0404L171.678 105.234C171.723 105.444 171.727 105.66 171.688 105.871C171.649 106.082 171.57 106.284 171.453 106.464C171.337 106.644 171.186 106.799 171.009 106.921C170.833 107.043 170.634 107.129 170.424 107.174L164.077 108.45C163.964 108.475 163.848 108.488 163.731 108.488C163.418 108.487 163.111 108.396 162.848 108.226Z" fill="#2F2E41"/>
<path d="M163.184 128.724H129.819C129.48 128.724 129.148 128.637 128.852 128.472C128.557 128.307 128.308 128.07 128.131 127.782C127.953 127.494 127.852 127.165 127.838 126.827C127.823 126.489 127.895 126.153 128.047 125.851L144.179 93.784C145.3 91.5559 147.14 89.7709 149.401 88.7178C151.663 87.6647 154.214 87.405 156.641 87.9807C159.069 88.5565 161.231 89.934 162.778 91.8905C164.325 93.847 165.167 96.268 165.167 98.762V126.742C165.166 127.267 164.957 127.771 164.585 128.143C164.214 128.514 163.71 128.723 163.184 128.724Z" fill="#2F2E41"/>
<path d="M154.68 62.453C152.124 63.0234 149.968 64.6886 147.398 65.2064C146.227 65.4423 144.938 65.4326 143.862 64.8564C143.066 64.424 142.457 63.7134 142.151 62.8604C141.849 61.988 141.771 61.0536 141.925 60.1433C142.078 59.2329 142.458 58.3757 143.03 57.6505C144.472 55.8853 146.772 55.0719 148.979 54.8427C153.395 54.3839 157.931 55.8386 161.526 58.3726C165.237 60.989 168.084 64.9178 169.039 69.3891C169.55 71.7792 169.5 74.3218 168.628 76.6234C167.79 78.8258 166.139 80.6236 164.016 81.6476C163.509 81.892 162.981 82.0887 162.438 82.235C162.351 82.2622 162.279 82.3219 162.235 82.4015C162.192 82.4812 162.181 82.5747 162.205 82.6621C162.229 82.7496 162.286 82.8243 162.364 82.8705C162.443 82.9167 162.536 82.9307 162.624 82.9096C165.011 82.258 167.071 80.7419 168.402 78.6564C169.769 76.4702 170.228 73.7938 170.017 71.2503C169.61 66.33 166.903 61.8077 163.119 58.7118C159.484 55.7376 154.782 53.9279 150.054 54.0717C147.682 54.1438 145.221 54.7455 143.377 56.3074C142.582 56.9791 141.967 57.8377 141.587 58.8059C141.207 59.7742 141.073 60.8217 141.198 61.8544C141.304 62.8206 141.687 63.7353 142.303 64.4881C143.055 65.3375 144.097 65.8756 145.225 65.9969C148.021 66.3607 150.445 64.7766 152.916 63.7584C153.546 63.4927 154.199 63.2817 154.866 63.1276C155.305 63.0295 155.119 62.3549 154.68 62.453Z" fill="#2F2E41"/>
<path d="M161.703 57.5087C160.699 53.7526 163.319 49.8432 166.878 48.6702C168.921 48.0345 171.112 48.0589 173.139 48.7401C175.116 49.4087 176.892 50.5673 178.299 52.1075C181.419 55.4255 182.802 59.9037 183.448 64.319C184.116 68.8778 183.739 73.8708 186.073 78.0134C187.04 79.731 188.476 81.2349 190.332 81.9744C192.063 82.6644 194.137 82.6676 195.795 81.7709C196.194 81.5525 196.563 81.2831 196.893 80.9694C197.221 80.6597 196.726 80.1657 196.398 80.4747C195.009 81.7846 192.939 82.0316 191.155 81.5176C189.208 80.957 187.709 79.4613 186.722 77.739C185.58 75.7474 185.104 73.4709 184.845 71.2121C184.562 68.7464 184.453 66.2674 184.075 63.8117C183.393 59.3826 181.92 54.9366 178.794 51.6128C177.365 50.0606 175.582 48.8751 173.598 48.1567C171.555 47.4255 169.341 47.3137 167.234 47.8355C165.32 48.3313 163.632 49.4658 162.451 51.0513C161.302 52.5561 160.718 54.4158 160.801 56.3066C160.831 56.7756 160.907 57.2406 161.028 57.6947C161.055 57.7813 161.115 57.854 161.195 57.8974C161.274 57.9408 161.368 57.9516 161.455 57.9275C161.543 57.9034 161.618 57.8462 161.664 57.7681C161.71 57.69 161.724 57.597 161.703 57.5087Z" fill="#2F2E41"/>
<path d="M24.3223 89.3139H3.96585C2.9144 89.3127 1.90636 88.8946 1.16288 88.1515C0.419393 87.4082 0.00118366 86.4006 0 85.3496V3.96433C0.00118366 2.91328 0.419393 1.90563 1.16288 1.16243C1.90636 0.419233 2.9144 0.0011832 3.96585 0H59.18L69.2857 9.01959V25.4183H68.8192V9.22842L59.002 0.466391H3.96585C3.03811 0.46744 2.14866 0.836309 1.49264 1.49207C0.836629 2.14783 0.46762 3.03694 0.466571 3.96433V85.3496C0.46762 86.2769 0.836629 87.166 1.49264 87.8218C2.14866 88.4776 3.03811 88.8464 3.96585 88.8475H24.3223V89.3139Z" fill="#CCCCCC"/>
<path d="M69.0517 9.32782H62.753C61.7015 9.32664 60.6935 8.90859 59.95 8.16539C59.2065 7.42219 58.7883 6.41454 58.7871 5.3635V0.233195C58.7871 0.171348 58.8117 0.112034 58.8554 0.0683012C58.8992 0.0245686 58.9585 0 59.0204 0C59.0823 0 59.1416 0.0245686 59.1853 0.0683012C59.2291 0.112034 59.2537 0.171348 59.2537 0.233195V5.3635C59.2547 6.29088 59.6237 7.17999 60.2798 7.83575C60.9358 8.49151 61.8252 8.86038 62.753 8.86143H69.0517C69.1135 8.86143 69.1729 8.886 69.2166 8.92973C69.2604 8.97346 69.2849 9.03278 69.2849 9.09463C69.2849 9.15647 69.2604 9.21579 69.2166 9.25952C69.1729 9.30325 69.1135 9.32782 69.0517 9.32782Z" fill="#CCCCCC"/>
<path d="M61.2467 21.1042H8.05769C7.56272 21.1042 7.08802 21.3008 6.73803 21.6507C6.38803 22.0005 6.19141 22.475 6.19141 22.9698C6.19141 23.4646 6.38803 23.9391 6.73803 24.289C7.08802 24.6388 7.56272 24.8354 8.05769 24.8354H61.2467C61.7417 24.8354 62.2164 24.6388 62.5664 24.289C62.9164 23.9391 63.113 23.4646 63.113 22.9698C63.113 22.475 62.9164 22.0005 62.5664 21.6507C62.2164 21.3008 61.7417 21.1042 61.2467 21.1042Z" fill="#E6E6E6"/>
<path d="M34.4189 13.1755H8.05769C7.56272 13.1755 7.08802 13.3721 6.73803 13.7219C6.38803 14.0718 6.19141 14.5463 6.19141 15.0411C6.19141 15.5359 6.38803 16.0104 6.73803 16.3603C7.08802 16.7101 7.56272 16.9067 8.05769 16.9067H34.4189C34.9139 16.9067 35.3886 16.7101 35.7386 16.3603C36.0886 16.0104 36.2852 15.5359 36.2852 15.0411C36.2852 14.5463 36.0886 14.0718 35.7386 13.7219C35.3886 13.3721 34.9139 13.1755 34.4189 13.1755Z" fill="#E6E6E6"/>
<path d="M8.05769 36.7283C7.56272 36.7283 7.08802 36.9248 6.73803 37.2747C6.38803 37.6245 6.19141 38.0991 6.19141 38.5938C6.19141 39.0886 6.38803 39.5631 6.73803 39.913C7.08802 40.2629 7.56272 40.4594 8.05769 40.4594H24.7283V36.7283H8.05769Z" fill="#E6E6E6"/>
<path d="M8.05769 28.7996C7.8126 28.7996 7.56992 28.8478 7.34349 28.9416C7.11707 29.0353 6.91133 29.1727 6.73803 29.346C6.56473 29.5192 6.42726 29.7249 6.33347 29.9512C6.23968 30.1775 6.19141 30.4201 6.19141 30.6651C6.19141 30.9101 6.23968 31.1527 6.33347 31.379C6.42726 31.6054 6.56473 31.811 6.73803 31.9843C6.91133 32.1575 7.11707 32.2949 7.34349 32.3887C7.56992 32.4824 7.8126 32.5307 8.05769 32.5307H24.7283V28.7996H8.05769Z" fill="#E6E6E6"/>
<path d="M24.8454 76.2548H9.90585C8.88533 76.2537 7.90694 75.8479 7.18532 75.1266C6.4637 74.4052 6.05779 73.4272 6.05664 72.4071V52.8187C6.05779 51.7985 6.46371 50.8205 7.18532 50.0992C7.90694 49.3779 8.88533 48.9721 9.90585 48.9709H24.8454V76.2548Z" fill="#E6E6E6"/>
<path d="M48.9336 114.382H28.5772C27.5257 114.381 26.5177 113.963 25.7742 113.22C25.0307 112.477 24.6125 111.469 24.6113 110.418V29.0329C24.6125 27.9819 25.0307 26.9742 25.7742 26.231C26.5177 25.4878 27.5257 25.0698 28.5772 25.0686H83.7913L93.897 34.0882V49.5541H93.4305V34.297L83.6133 25.535H28.5772C27.6494 25.536 26.76 25.9049 26.104 26.5607C25.448 27.2164 25.0789 28.1055 25.0779 29.0329V110.418C25.0789 111.346 25.448 112.235 26.104 112.89C26.76 113.546 27.6494 113.915 28.5772 113.916H48.9336V114.382Z" fill="#CCCCCC"/>
<path d="M93.6649 34.3964H87.3662C86.3148 34.3952 85.3068 33.9772 84.5633 33.234C83.8198 32.4908 83.4016 31.4831 83.4004 30.4321V25.3018C83.4004 25.24 83.425 25.1806 83.4687 25.1369C83.5125 25.0932 83.5718 25.0686 83.6337 25.0686C83.6955 25.0686 83.7549 25.0932 83.7986 25.1369C83.8424 25.1806 83.867 25.24 83.867 25.3018V30.4321C83.868 31.3595 84.237 32.2486 84.893 32.9044C85.5491 33.5601 86.4385 33.929 87.3662 33.93H93.6649C93.7268 33.93 93.7862 33.9546 93.8299 33.9983C93.8737 34.0421 93.8982 34.1014 93.8982 34.1632C93.8982 34.2251 93.8737 34.2844 93.8299 34.3281C93.7862 34.3719 93.7268 34.3964 93.6649 34.3964Z" fill="#CCCCCC"/>
<path d="M85.8581 46.1726H32.669C32.174 46.1726 31.6994 46.3692 31.3494 46.719C30.9994 47.0689 30.8027 47.5434 30.8027 48.0382C30.8027 48.5329 30.9994 49.0075 31.3494 49.3573C31.6994 49.7072 32.174 49.9037 32.669 49.9037H85.8581C86.353 49.9037 86.8277 49.7072 87.1777 49.3573C87.5277 49.0075 87.7243 48.5329 87.7243 48.0382C87.7243 47.5434 87.5277 47.0689 87.1777 46.719C86.8277 46.3692 86.353 46.1726 85.8581 46.1726Z" fill="#E6E6E6"/>
<path d="M59.0303 38.2441H32.669C32.174 38.2441 31.6994 38.4407 31.3494 38.7906C30.9994 39.1404 30.8027 39.6149 30.8027 40.1097C30.8027 40.6045 30.9994 41.079 31.3494 41.4289C31.6994 41.7787 32.174 41.9753 32.669 41.9753H59.0303C59.5252 41.9753 59.9999 41.7787 60.3499 41.4289C60.6999 41.079 60.8965 40.6045 60.8965 40.1097C60.8965 39.6149 60.6999 39.1404 60.3499 38.7906C59.9999 38.4407 59.5252 38.2441 59.0303 38.2441Z" fill="#E6E6E6"/>
<path d="M85.8581 46.1726H32.669C32.174 46.1726 31.6994 46.3692 31.3494 46.719C30.9994 47.0689 30.8027 47.5434 30.8027 48.0382C30.8027 48.5329 30.9994 49.0075 31.3494 49.3573C31.6994 49.7072 32.174 49.9037 32.669 49.9037H85.8581C86.353 49.9037 86.8277 49.7072 87.1777 49.3573C87.5277 49.0075 87.7243 48.5329 87.7243 48.0382C87.7243 47.5434 87.5277 47.0689 87.1777 46.719C86.8277 46.3692 86.353 46.1726 85.8581 46.1726Z" fill="#E6E6E6"/>
<path d="M59.0303 38.2441H32.669C32.174 38.2441 31.6994 38.4407 31.3494 38.7906C30.9994 39.1404 30.8027 39.6149 30.8027 40.1097C30.8027 40.6045 30.9994 41.079 31.3494 41.4289C31.6994 41.7787 32.174 41.9753 32.669 41.9753H59.0303C59.5252 41.9753 59.9999 41.7787 60.3499 41.4289C60.6999 41.079 60.8965 40.6045 60.8965 40.1097C60.8965 39.6149 60.6999 39.1404 60.3499 38.7906C59.9999 38.4407 59.5252 38.2441 59.0303 38.2441Z" fill="#E6E6E6"/>
<path d="M32.669 61.7969C32.174 61.7969 31.6994 61.9934 31.3494 62.3433C30.9994 62.6932 30.8027 63.1677 30.8027 63.6624C30.8027 64.1572 30.9994 64.6317 31.3494 64.9816C31.6994 65.3315 32.174 65.528 32.669 65.528H49.3396V61.7969H32.669Z" fill="#E6E6E6"/>
<path d="M32.669 53.8682C32.174 53.8682 31.6994 54.0647 31.3494 54.4146C30.9994 54.7644 30.8027 55.2389 30.8027 55.7337C30.8027 56.2285 30.9994 56.703 31.3494 57.0529C31.6994 57.4027 32.174 57.5993 32.669 57.5993H49.3396V53.8682H32.669Z" fill="#E6E6E6"/>
<path d="M32.669 61.7969C32.174 61.7969 31.6994 61.9934 31.3494 62.3433C30.9994 62.6932 30.8027 63.1677 30.8027 63.6624C30.8027 64.1572 30.9994 64.6317 31.3494 64.9816C31.6994 65.3315 32.174 65.528 32.669 65.528H49.3396V61.7969H32.669Z" fill="#E6E6E6"/>
<path d="M32.669 53.8682C32.174 53.8682 31.6994 54.0647 31.3494 54.4146C30.9994 54.7644 30.8027 55.2389 30.8027 55.7337C30.8027 56.2285 30.9994 56.703 31.3494 57.0529C31.6994 57.4027 32.174 57.5993 32.669 57.5993H49.3396V53.8682H32.669Z" fill="#E6E6E6"/>
<path d="M49.4568 101.323H34.5172C33.4967 101.322 32.5183 100.917 31.7966 100.195C31.075 99.4738 30.6691 98.4958 30.668 97.4757V77.8873C30.6691 76.8671 31.075 75.8891 31.7966 75.1678C32.5183 74.4465 33.4967 74.0407 34.5172 74.0396H49.4568V101.323Z" fill="#E6E6E6"/>
<path d="M50.772 50.3701C50.1922 50.7239 49.7131 51.2206 49.3805 51.8127C49.048 52.4048 48.8733 53.0724 48.8731 53.7514V54.3344H49.3396V53.7514C49.3406 52.9803 49.596 52.2309 50.0662 51.6196C50.5365 51.0083 51.1954 50.5691 51.9407 50.3701H50.772ZM108.053 49.7871H52.8389C51.7875 49.7883 50.7795 50.2064 50.036 50.9496C49.2925 51.6928 48.8743 52.7004 48.8731 53.7514V135.137C48.8745 136.188 49.2929 137.195 50.0363 137.938C50.7797 138.681 51.7876 139.1 52.8389 139.101H114.193C115.244 139.1 116.252 138.681 116.996 137.938C117.739 137.195 118.157 136.188 118.159 135.137V58.8071L108.053 49.7871ZM117.692 135.137C117.691 136.064 117.322 136.953 116.666 137.609C116.01 138.265 115.121 138.633 114.193 138.635H52.8389C51.9112 138.633 51.0218 138.265 50.3658 137.609C49.7098 136.953 49.3407 136.064 49.3396 135.137L49.3396 53.7514C49.3406 52.9803 49.596 52.2309 50.0662 51.6196C50.5365 51.0083 51.1954 50.5691 51.9407 50.3701C52.2337 50.2921 52.5357 50.2529 52.8389 50.2535H107.876L117.692 59.0147V135.137ZM50.772 50.3701C50.1922 50.7239 49.7131 51.2206 49.3805 51.8127C49.048 52.4048 48.8733 53.0724 48.8731 53.7514V54.3344H49.3396V53.7514C49.3406 52.9803 49.596 52.2309 50.0662 51.6196C50.5365 51.0083 51.1954 50.5691 51.9407 50.3701H50.772Z" fill="#3F3D56"/>
<path d="M117.927 59.1149H111.628C110.577 59.1137 109.568 58.6957 108.825 57.9525C108.082 57.2093 107.663 56.2016 107.662 55.1506V50.0203C107.662 49.9585 107.687 49.8991 107.73 49.8554C107.774 49.8117 107.834 49.7871 107.895 49.7871C107.957 49.7871 108.017 49.8117 108.06 49.8554C108.104 49.8991 108.129 49.9585 108.129 50.0203V55.1506C108.13 56.078 108.499 56.9671 109.155 57.6229C109.811 58.2786 110.7 58.6475 111.628 58.6485H117.927C117.989 58.6485 118.048 58.6731 118.092 58.7168C118.135 58.7606 118.16 58.8199 118.16 58.8817C118.16 58.9436 118.135 59.0029 118.092 59.0466C118.048 59.0904 117.989 59.1149 117.927 59.1149Z" fill="#3F3D56"/>
<path d="M110.12 74.6225H56.9307C56.4358 74.6225 55.9611 74.4259 55.6111 74.0761C55.2611 73.7262 55.0645 73.2517 55.0645 72.7569C55.0645 72.2621 55.2611 71.7876 55.6111 71.4378C55.9611 71.0879 56.4358 70.8914 56.9307 70.8914H110.12C110.615 70.8914 111.089 71.0879 111.439 71.4378C111.789 71.7876 111.986 72.2621 111.986 72.7569C111.986 73.2517 111.789 73.7262 111.439 74.0761C111.089 74.4259 110.615 74.6225 110.12 74.6225Z" fill="#CCCCCC"/>
<path d="M83.292 66.694H56.9307C56.4358 66.694 55.9611 66.4975 55.6111 66.1476C55.2611 65.7977 55.0645 65.3232 55.0645 64.8285C55.0645 64.3337 55.2611 63.8592 55.6111 63.5093C55.9611 63.1594 56.4358 62.9629 56.9307 62.9629H83.292C83.7869 62.9629 84.2616 63.1594 84.6116 63.5093C84.9616 63.8592 85.1582 64.3337 85.1582 64.8285C85.1582 65.3232 84.9616 65.7977 84.6116 66.1476C84.2616 66.4975 83.7869 66.694 83.292 66.694Z" fill="#CCCCCC"/>
<path d="M110.12 90.2468H56.9307C56.4358 90.2468 55.9611 90.0502 55.6111 89.7003C55.2611 89.3505 55.0645 88.876 55.0645 88.3812C55.0645 87.8864 55.2611 87.4119 55.6111 87.062C55.9611 86.7122 56.4358 86.5156 56.9307 86.5156H110.12C110.615 86.5156 111.089 86.7122 111.439 87.062C111.789 87.4119 111.986 87.8864 111.986 88.3812C111.986 88.876 111.789 89.3505 111.439 89.7003C111.089 90.0502 110.615 90.2468 110.12 90.2468Z" fill="#CCCCCC"/>
<path d="M83.292 82.318H56.9307C56.4358 82.318 55.9611 82.1215 55.6111 81.7716C55.2611 81.4218 55.0645 80.9473 55.0645 80.4525C55.0645 79.9577 55.2611 79.4832 55.6111 79.1333C55.9611 78.7835 56.4358 78.5869 56.9307 78.5869H83.292C83.7869 78.5869 84.2616 78.7835 84.6116 79.1333C84.9616 79.4832 85.1582 79.9577 85.1582 80.4525C85.1582 80.9473 84.9616 81.4218 84.6116 81.7716C84.2616 82.1215 83.7869 82.318 83.292 82.318Z" fill="#CCCCCC"/>
<path d="M108.235 126.042H58.7789C57.7584 126.041 56.78 125.635 56.0584 124.914C55.3368 124.193 54.9308 123.215 54.9297 122.194V102.606C54.9308 101.586 55.3368 100.608 56.0584 99.8865C56.78 99.1652 57.7584 98.7595 58.7789 98.7583H108.235C109.256 98.7595 110.234 99.1652 110.956 99.8865C111.678 100.608 112.083 101.586 112.085 102.606V122.194C112.083 123.215 111.678 124.193 110.956 124.914C110.234 125.635 109.256 126.041 108.235 126.042Z" fill="#6C63FF"/>
</g>
<defs>
<clipPath id="clip0_76_313">
<rect width="197" height="152" fill="white"/>
</clipPath>
</defs>
</svg>
