<svg width="209" height="144" viewBox="0 0 209 144" fill="none" xmlns="http://www.w3.org/2000/svg">
<g clip-path="url(#clip0_76_215)">
<path d="M205.441 -0.000732422H3.55876C2.60717 0.00852495 1.69811 0.393802 1.03098 1.0706C0.363843 1.74739 -0.00688719 2.66044 9.69187e-05 3.60947V140.397C-0.00501604 141.344 0.366604 142.255 1.03359 142.93C1.70057 143.605 2.60857 143.989 3.55876 143.998H205.441C206.392 143.989 207.3 143.605 207.967 142.93C208.634 142.255 209.005 141.344 209 140.397V3.60978C209.007 2.66081 208.636 1.74781 207.969 1.07103C207.302 0.394244 206.393 0.00892489 205.442 -0.000416332L205.441 -0.000732422Z" fill="#090814"/>
<path d="M199.475 0.714748H3.77162C2.85578 0.716352 1.97799 1.08029 1.33093 1.72667C0.683866 2.37304 0.320396 3.24905 0.320312 4.16241V134.783C0.321496 135.695 0.6855 136.57 1.33249 137.215C1.97947 137.86 2.85664 138.223 3.77162 138.224H199.475C200.39 138.223 201.267 137.86 201.914 137.215C202.561 136.57 202.925 135.695 202.926 134.783V4.16177C202.926 3.24872 202.563 2.37295 201.916 1.72661C201.27 1.08026 200.392 0.716137 199.477 0.714111L199.475 0.714748Z" fill="white"/>
<path d="M145.954 53.7934H51.0864C50.1998 53.7924 49.3498 53.4407 48.7228 52.8154C48.0959 52.1902 47.7432 51.3425 47.7422 50.4582V40.2778C47.7432 39.3936 48.0959 38.5458 48.7228 37.9206C49.3498 37.2953 50.1998 36.9436 51.0864 36.9426H145.954C146.841 36.9436 147.691 37.2953 148.318 37.9206C148.945 38.5458 149.298 39.3936 149.299 40.2778V50.4586C149.298 51.3428 148.945 52.1905 148.318 52.8158C147.691 53.441 146.841 53.7927 145.954 53.7937V53.7934ZM51.0864 37.2929C50.2931 37.2937 49.5326 37.6084 48.9716 38.1678C48.4107 38.7272 48.0952 39.4857 48.0943 40.2768V50.4576C48.0952 51.2487 48.4107 52.0072 48.9716 52.5667C49.5326 53.1261 50.2931 53.4407 51.0864 53.4416H145.954C146.748 53.4407 147.508 53.1261 148.069 52.5667C148.63 52.0072 148.946 51.2487 148.947 50.4576V40.2778C148.946 39.4865 148.631 38.7277 148.07 38.1681C147.509 37.6085 146.748 37.2937 145.954 37.2929H51.0864Z" fill="#CCCCCC"/>
<path d="M63.9052 51.1728C62.7539 51.1728 61.6285 50.8324 60.6712 50.1946C59.7139 49.5567 58.9678 48.6501 58.5272 47.5894C58.0866 46.5287 57.9712 45.3615 58.1958 44.2354C58.4204 43.1093 58.9747 42.0749 59.7888 41.263C60.6028 40.4511 61.64 39.8982 62.7691 39.6742C63.8983 39.4502 65.0687 39.5651 66.1323 40.0045C67.196 40.4438 68.1051 41.1879 68.7447 42.1425C69.3843 43.0972 69.7257 44.2195 69.7257 45.3677C69.7257 46.13 69.5752 46.8849 69.2827 47.5892C68.9902 48.2935 68.5615 48.9334 68.021 49.4725C67.4805 50.0115 66.8389 50.4391 66.1327 50.7309C65.4265 51.0226 64.6696 51.1728 63.9052 51.1728Z" fill="#E6E6E6"/>
<path d="M137.359 50.1074H75.2304C74.857 50.1074 74.4988 49.9594 74.2347 49.6961C73.9706 49.4327 73.8223 49.0755 73.8223 48.7031C73.8223 48.3306 73.9706 47.9734 74.2347 47.71C74.4988 47.4467 74.857 47.2987 75.2304 47.2987H137.359C137.733 47.2987 138.091 47.4467 138.355 47.71C138.619 47.9734 138.767 48.3306 138.767 48.7031C138.767 49.0755 138.619 49.4327 138.355 49.6961C138.091 49.9594 137.733 50.1074 137.359 50.1074Z" fill="#E6E6E6"/>
<path d="M117.118 44.1395H75.2285C74.855 44.1395 74.4968 43.9915 74.2327 43.7282C73.9687 43.4648 73.8203 43.1076 73.8203 42.7352C73.8203 42.3627 73.9687 42.0055 74.2327 41.7421C74.4968 41.4788 74.855 41.3308 75.2285 41.3308H117.118C117.491 41.3308 117.85 41.4788 118.114 41.7421C118.378 42.0055 118.526 42.3627 118.526 42.7352C118.526 43.1076 118.378 43.4648 118.114 43.7282C117.85 43.9915 117.491 44.1395 117.118 44.1395Z" fill="#E6E6E6"/>
<path d="M146.257 100.438H51.3892C50.5025 100.437 49.6525 100.085 49.0255 99.4602C48.3986 98.835 48.0459 97.9872 48.0449 97.103V86.9226C48.0459 86.0383 48.3986 85.1906 49.0255 84.5654C49.6525 83.9401 50.5025 83.5884 51.3892 83.5874H146.257C147.144 83.5884 147.994 83.9401 148.621 84.5654C149.248 85.1906 149.6 86.0383 149.601 86.9226V97.1033C149.6 97.9876 149.248 98.8353 148.621 99.4605C147.994 100.086 147.144 100.437 146.257 100.438V100.438ZM51.3892 83.9376C50.5959 83.9385 49.8353 84.2531 49.2744 84.8126C48.7134 85.372 48.3979 86.1305 48.3971 86.9216V97.1024C48.3979 97.8935 48.7134 98.652 49.2744 99.2114C49.8353 99.7708 50.5959 100.085 51.3892 100.086H146.257C147.05 100.085 147.811 99.7708 148.372 99.2114C148.933 98.652 149.248 97.8935 149.249 97.1024V86.9226C149.249 86.1313 148.933 85.3725 148.372 84.8129C147.811 84.2533 147.051 83.9385 146.257 83.9376H51.3892Z" fill="#CCCCCC"/>
<path d="M64.2079 97.8176C63.0566 97.8177 61.9312 97.4773 60.9739 96.8395C60.0166 96.2016 59.2705 95.295 58.8299 94.2343C58.3893 93.1736 58.274 92.0064 58.4985 90.8803C58.7231 89.7542 59.2775 88.7198 60.0915 87.9079C60.9056 87.096 61.9427 86.5431 63.0719 86.3191C64.201 86.0951 65.3714 86.21 66.4351 86.6494C67.4987 87.0887 68.4078 87.8328 69.0474 88.7874C69.687 89.7421 70.0284 90.8644 70.0284 92.0126C70.0285 92.7749 69.878 93.5298 69.5855 94.2341C69.293 94.9384 68.8642 95.5783 68.3238 96.1174C67.7833 96.6564 67.1416 97.084 66.4354 97.3758C65.7292 97.6675 64.9723 97.8176 64.2079 97.8176Z" fill="#E6E6E6"/>
<path d="M137.662 96.752H75.5332C75.1597 96.752 74.8015 96.6041 74.5374 96.3407C74.2734 96.0774 74.125 95.7202 74.125 95.3477C74.125 94.9753 74.2734 94.618 74.5374 94.3547C74.8015 94.0913 75.1597 93.9434 75.5332 93.9434H137.662C138.035 93.9434 138.393 94.0913 138.658 94.3547C138.922 94.618 139.07 94.9753 139.07 95.3477C139.07 95.7202 138.922 96.0774 138.658 96.3407C138.393 96.6041 138.035 96.752 137.662 96.752Z" fill="#E6E6E6"/>
<path d="M117.421 90.7843H75.5312C75.1577 90.7843 74.7996 90.6363 74.5355 90.3729C74.2714 90.1096 74.123 89.7524 74.123 89.3799C74.123 89.0075 74.2714 88.6503 74.5355 88.3869C74.7996 88.1235 75.1577 87.9756 75.5312 87.9756H117.421C117.794 87.9756 118.152 88.1235 118.416 88.3869C118.68 88.6503 118.829 89.0075 118.829 89.3799C118.829 89.7524 118.68 90.1096 118.416 90.3729C118.152 90.6363 117.794 90.7843 117.421 90.7843Z" fill="#E6E6E6"/>
<path d="M146.257 123.761H51.3892C50.5025 123.76 49.6525 123.408 49.0255 122.783C48.3986 122.158 48.0459 121.31 48.0449 120.426V110.246C48.0459 109.361 48.3986 108.514 49.0255 107.888C49.6525 107.263 50.5025 106.911 51.3892 106.91H146.257C147.144 106.911 147.994 107.263 148.621 107.888C149.248 108.514 149.6 109.361 149.601 110.246V120.426C149.6 121.311 149.248 122.158 148.621 122.784C147.994 123.409 147.144 123.76 146.257 123.761V123.761ZM51.3892 107.261C50.5959 107.261 49.8353 107.576 49.2744 108.136C48.7134 108.695 48.3979 109.453 48.3971 110.245V120.425C48.3979 121.217 48.7134 121.975 49.2744 122.534C49.8353 123.094 50.5959 123.408 51.3892 123.409H146.257C147.05 123.408 147.811 123.094 148.372 122.534C148.933 121.975 149.248 121.217 149.249 120.425V110.246C149.249 109.454 148.933 108.696 148.372 108.136C147.811 107.576 147.051 107.261 146.257 107.261H51.3892Z" fill="#CCCCCC"/>
<path d="M64.2079 121.141C63.0566 121.141 61.9312 120.8 60.9739 120.162C60.0166 119.525 59.2705 118.618 58.8299 117.557C58.3893 116.497 58.274 115.329 58.4985 114.203C58.7231 113.077 59.2775 112.043 60.0915 111.231C60.9056 110.419 61.9427 109.866 63.0719 109.642C64.201 109.418 65.3714 109.533 66.4351 109.972C67.4987 110.412 68.4078 111.156 69.0474 112.11C69.687 113.065 70.0284 114.187 70.0284 115.336C70.0285 116.098 69.878 116.853 69.5855 117.557C69.293 118.261 68.8642 118.901 68.3238 119.44C67.7833 119.979 67.1416 120.407 66.4354 120.699C65.7292 120.99 64.9723 121.141 64.2079 121.141Z" fill="#E6E6E6"/>
<path d="M137.662 120.075H75.5332C75.1597 120.075 74.8015 119.927 74.5374 119.664C74.2734 119.4 74.125 119.043 74.125 118.671C74.125 118.298 74.2734 117.941 74.5374 117.678C74.8015 117.414 75.1597 117.266 75.5332 117.266H137.662C138.035 117.266 138.393 117.414 138.658 117.678C138.922 117.941 139.07 118.298 139.07 118.671C139.07 119.043 138.922 119.4 138.658 119.664C138.393 119.927 138.035 120.075 137.662 120.075Z" fill="#E6E6E6"/>
<path d="M117.421 114.107H75.5312C75.1577 114.107 74.7996 113.959 74.5355 113.696C74.2714 113.433 74.123 113.075 74.123 112.703C74.123 112.33 74.2714 111.973 74.5355 111.71C74.7996 111.447 75.1577 111.299 75.5312 111.299H117.421C117.794 111.299 118.152 111.447 118.416 111.71C118.68 111.973 118.829 112.33 118.829 112.703C118.829 113.075 118.68 113.433 118.416 113.696C118.152 113.959 117.794 114.107 117.421 114.107Z" fill="#E6E6E6"/>
<path d="M145.954 77.116H51.0864C50.1998 77.115 49.3498 76.7633 48.7228 76.1381C48.0959 75.5128 47.7432 74.6651 47.7422 73.7809V63.6004C47.7432 62.7162 48.0959 61.8685 48.7228 61.2432C49.3498 60.618 50.1998 60.2663 51.0864 60.2653H145.954C146.841 60.2663 147.691 60.618 148.318 61.2432C148.945 61.8685 149.298 62.7162 149.299 63.6004V73.7812C149.298 74.6654 148.945 75.5131 148.318 76.1384C147.691 76.7636 146.841 77.1153 145.954 77.1164V77.116ZM51.0864 60.6155C50.2931 60.6163 49.5326 60.931 48.9716 61.4904C48.4107 62.0498 48.0952 62.8083 48.0943 63.5995V73.7802C48.0952 74.5714 48.4107 75.3299 48.9716 75.8893C49.5326 76.4487 50.2931 76.7633 51.0864 76.7642H145.954C146.748 76.7633 147.508 76.4487 148.069 75.8893C148.63 75.3299 148.946 74.5714 148.947 73.7802V63.6004C148.946 62.8091 148.631 62.0504 148.07 61.4908C147.509 60.9311 146.748 60.6164 145.954 60.6155H51.0864Z" fill="#6C63FF"/>
<path d="M63.9833 74.4956C62.832 74.4957 61.7066 74.1553 60.7493 73.5174C59.792 72.8796 59.0459 71.973 58.6053 70.9123C58.1647 69.8516 58.0494 68.6843 58.2739 67.5582C58.4985 66.4321 59.0528 65.3978 59.8669 64.5859C60.6809 63.774 61.7181 63.2211 62.8473 62.9971C63.9764 62.7731 65.1468 62.888 66.2104 63.3273C67.2741 63.7667 68.1832 64.5108 68.8228 65.4654C69.4624 66.4201 69.8038 67.5424 69.8038 68.6906C69.8039 69.4529 69.6533 70.2077 69.3609 70.912C69.0684 71.6163 68.6396 72.2563 68.0991 72.7953C67.5587 73.3344 66.917 73.762 66.2108 74.0537C65.5046 74.3455 64.7477 74.4956 63.9833 74.4956Z" fill="#6C63FF"/>
<path d="M137.359 73.4303H75.2304C74.857 73.4303 74.4988 73.2823 74.2347 73.0189C73.9706 72.7556 73.8223 72.3984 73.8223 72.0259C73.8223 71.6535 73.9706 71.2963 74.2347 71.0329C74.4988 70.7695 74.857 70.6216 75.2304 70.6216H137.359C137.733 70.6216 138.091 70.7695 138.355 71.0329C138.619 71.2963 138.767 71.6535 138.767 72.0259C138.767 72.3984 138.619 72.7556 138.355 73.0189C138.091 73.2823 137.733 73.4303 137.359 73.4303Z" fill="#6C63FF"/>
<path d="M117.118 67.4624H75.2285C74.855 67.4624 74.4968 67.3144 74.2327 67.051C73.9687 66.7877 73.8203 66.4305 73.8203 66.058C73.8203 65.6856 73.9687 65.3284 74.2327 65.065C74.4968 64.8016 74.855 64.6537 75.2285 64.6537H117.118C117.491 64.6537 117.85 64.8016 118.114 65.065C118.378 65.3284 118.526 65.6856 118.526 66.058C118.526 66.4305 118.378 66.7877 118.114 67.051C117.85 67.3144 117.491 67.4624 117.118 67.4624Z" fill="#6C63FF"/>
<path d="M63.1749 72.0261C62.9696 72.0266 62.7697 71.9605 62.6054 71.8378L62.5952 71.8301L60.4541 70.1958C60.3525 70.1208 60.2669 70.0264 60.2023 69.918C60.1376 69.8097 60.0953 69.6896 60.0776 69.5647C60.06 69.4399 60.0675 69.3128 60.0997 69.1909C60.1318 69.0689 60.188 68.9546 60.2649 68.8546C60.3419 68.7545 60.438 68.6707 60.5477 68.6081C60.6575 68.5455 60.7786 68.5053 60.9041 68.4899C61.0295 68.4744 61.1568 68.4841 61.2785 68.5182C61.4002 68.5523 61.5139 68.6103 61.6129 68.6887L63.0007 69.75L66.2798 65.4836C66.3558 65.3846 66.4506 65.3015 66.5588 65.2391C66.667 65.1767 66.7865 65.1362 66.9104 65.1198C67.0343 65.1035 67.1602 65.1118 67.281 65.144C67.4017 65.1763 67.5149 65.232 67.614 65.308L67.5938 65.3376L67.6146 65.308C67.8147 65.4614 67.9456 65.6876 67.9785 65.9372C68.0115 66.1867 67.9438 66.439 67.7904 66.6389L63.9336 71.6548C63.8442 71.7702 63.7294 71.8635 63.598 71.9275C63.4667 71.9915 63.3224 72.0245 63.1762 72.0239L63.1749 72.0261Z" fill="white"/>
<path d="M100.578 20.5855H100.138C99.7445 20.585 99.3672 20.4288 99.0889 20.1513C98.8105 19.8737 98.654 19.4974 98.6534 19.1048V18.7371C98.6242 17.9494 98.8016 17.1677 99.168 16.4692C99.582 15.7791 100.065 15.1324 100.61 14.5392C100.971 14.1763 101.299 13.7816 101.589 13.36C101.798 13.0328 101.905 12.6519 101.899 12.2643C101.899 11.3503 101.301 10.9057 100.073 10.9057C99.3912 10.9133 98.7137 11.0147 98.0597 11.2069C97.8075 11.2788 97.542 11.2913 97.2842 11.2435C97.0263 11.1956 96.7831 11.0886 96.5738 10.9311C96.3644 10.7735 96.1946 10.5696 96.0778 10.3354C95.9609 10.1012 95.9002 9.84312 95.9004 9.58154V8.83674C95.899 8.51612 95.9908 8.20197 96.1649 7.93237C96.3389 7.66277 96.5876 7.44929 96.8808 7.31784C99.1794 6.38339 101.749 6.36058 104.064 7.25409C105.019 7.63374 105.853 8.26423 106.478 9.07864C107.05 9.84851 107.355 10.7838 107.344 11.742C107.368 12.6977 107.073 13.6342 106.507 14.4057C105.816 15.2816 105.031 16.0793 104.166 16.7844C103.637 17.2231 103.135 17.6941 102.664 18.1946C102.36 18.5212 102.145 18.9201 102.04 19.3531C101.981 19.6976 101.802 20.0102 101.534 20.2354C101.266 20.4606 100.927 20.5837 100.577 20.583L100.578 20.5855Z" fill="#6C63FF"/>
<path d="M100.334 27.5487H100.275C99.5455 27.5487 98.8455 27.2596 98.3295 26.7449C97.8134 26.2302 97.5234 25.5322 97.5234 24.8043C97.5234 24.0764 97.8134 23.3783 98.3295 22.8636C98.8455 22.349 99.5455 22.0598 100.275 22.0598H100.333C101.063 22.0598 101.763 22.349 102.279 22.8636C102.795 23.3783 103.085 24.0764 103.085 24.8043C103.085 25.5322 102.795 26.2302 102.279 26.7449C101.763 27.2596 101.063 27.5487 100.333 27.5487H100.334Z" fill="#6C63FF"/>
</g>
<defs>
<clipPath id="clip0_76_215">
<rect width="209" height="144" fill="white"/>
</clipPath>
</defs>
</svg>
