<svg width="177" height="166" viewBox="0 0 177 166" fill="none" xmlns="http://www.w3.org/2000/svg">
<g clip-path="url(#clip0_76_170)">
<path d="M163.62 126.995L171.56 128.239C174.248 124.976 176.101 121.104 176.958 116.96C171.152 121.726 162.322 119.193 155.282 121.795C153.092 122.623 151.117 123.935 149.501 125.633C147.886 127.331 146.673 129.372 145.951 131.604L142.07 135.791C145.583 137.185 149.355 137.8 153.128 137.591C156.9 137.383 160.582 136.357 163.921 134.585C165.784 133.572 167.513 132.327 169.066 130.881C166.288 129.127 163.62 126.995 163.62 126.995Z" fill="#F2F2F2"/>
<path d="M160.8 114.261L168.46 111.824C169.414 107.701 169.351 103.407 168.274 99.3145C165.197 106.176 156.168 107.858 151.024 113.336C149.433 115.056 148.248 117.114 147.557 119.356C146.867 121.598 146.688 123.968 147.035 126.288L145.424 131.771C149.188 131.448 152.838 130.311 156.121 128.437C159.405 126.564 162.245 123.999 164.445 120.919C165.662 119.179 166.655 117.293 167.402 115.304C164.135 114.976 160.8 114.261 160.8 114.261Z" fill="#F2F2F2"/>
<path d="M177 138.327C177 138.368 176.992 138.409 176.976 138.447C176.961 138.485 176.938 138.519 176.909 138.548C176.88 138.577 176.846 138.6 176.808 138.616C176.77 138.632 176.729 138.64 176.688 138.64H0.311736C0.229058 138.64 0.149766 138.607 0.0913046 138.548C0.032843 138.489 0 138.41 0 138.327C0 138.244 0.032843 138.165 0.0913046 138.106C0.149766 138.047 0.229058 138.014 0.311736 138.014H176.688C176.729 138.014 176.77 138.022 176.808 138.038C176.846 138.054 176.88 138.077 176.909 138.106C176.938 138.135 176.961 138.169 176.976 138.207C176.992 138.245 177 138.286 177 138.327Z" fill="#CCCCCC"/>
<path d="M73.0875 125.001C104.193 125.001 129.409 99.7153 129.409 68.5244C129.409 37.3334 104.193 12.0481 73.0875 12.0481C41.9818 12.0481 16.7656 37.3334 16.7656 68.5244C16.7656 99.7153 41.9818 125.001 73.0875 125.001Z" fill="#E6E6E6"/>
<path d="M121.549 68.5243C121.555 76.1071 119.788 83.5856 116.391 90.3603C112.994 97.1349 108.062 103.017 101.988 107.535C101.582 107.84 101.168 108.136 100.752 108.425C92.6306 114.086 82.9767 117.12 73.086 117.12C63.1954 117.12 53.5415 114.086 45.4202 108.425C45.0037 108.136 44.5898 107.84 44.1838 107.535C38.1147 103.013 33.1849 97.1301 29.7885 90.3564C26.392 83.5826 24.623 76.106 24.623 68.5243C24.623 60.9426 26.392 53.466 29.7885 46.6923C33.1849 39.9185 38.1147 34.0356 44.1838 29.5137C44.5898 29.209 45.0037 28.9121 45.4202 28.6232C53.5415 22.9625 63.1954 19.9285 73.086 19.9285C82.9767 19.9285 92.6306 22.9625 100.752 28.6232C101.168 28.9121 101.582 29.209 101.988 29.5137C108.062 34.0316 112.994 39.9138 116.391 46.6884C119.788 53.463 121.555 60.9416 121.549 68.5243Z" fill="white"/>
<path d="M73.0861 112.917C97.5366 112.917 117.358 93.0419 117.358 68.5243C117.358 44.0068 97.5366 24.1313 73.0861 24.1313C48.6355 24.1313 28.8145 44.0068 28.8145 68.5243C28.8145 93.0419 48.6355 112.917 73.0861 112.917Z" fill="#6C63FF"/>
<path opacity="0.2" d="M73.2029 24.2555C72.5317 24.2555 71.8647 24.2731 71.2009 24.3027C82.3903 25.2887 92.7876 30.5028 100.286 38.8887C107.785 47.2745 111.824 58.2051 111.586 69.4659C111.348 80.7267 106.849 91.4755 99.0025 99.5348C91.1558 107.594 80.5472 112.361 69.3262 112.87C70.604 112.981 71.8963 113.041 73.2029 113.041C84.9444 113.041 96.2051 108.364 104.508 100.039C112.81 91.7137 117.474 80.4222 117.474 68.6485C117.474 56.8747 112.81 45.5832 104.508 37.2579C96.2051 28.9326 84.9444 24.2555 73.2029 24.2555Z" fill="black"/>
<path d="M73.2181 20.9792C72.8362 20.9799 72.4701 21.1323 72.2001 21.4031C71.93 21.6739 71.778 22.041 71.7773 22.424V28.7283C71.7773 29.1115 71.9291 29.479 72.1993 29.7499C72.4695 30.0208 72.836 30.1731 73.2181 30.1731C73.6003 30.1731 73.9667 30.0208 74.2369 29.7499C74.5071 29.479 74.6589 29.1115 74.6589 28.7283V22.424C74.6583 22.041 74.5062 21.6739 74.2362 21.4031C73.9661 21.1323 73.6001 20.9799 73.2181 20.9792Z" fill="white"/>
<path d="M101.989 29.5137C101.583 29.209 101.169 28.9121 100.752 28.6232C100.502 28.6068 100.252 28.6562 100.027 28.7663C99.8023 28.8764 99.6097 29.0434 99.4686 29.251L95.9295 34.4599C95.7145 34.7766 95.6337 35.1659 95.705 35.5423C95.7762 35.9186 95.9936 36.2512 96.3094 36.4668C96.6252 36.6824 97.0134 36.7634 97.3887 36.692C97.7641 36.6206 98.0957 36.4026 98.3108 36.0859L101.85 30.877C101.985 30.6794 102.068 30.4511 102.092 30.213C102.116 29.9749 102.081 29.7345 101.989 29.5137Z" fill="white"/>
<path d="M118.068 53.2653C117.996 53.0896 117.891 52.9298 117.759 52.7949C117.626 52.6599 117.468 52.5526 117.294 52.4789C117.12 52.4052 116.933 52.3667 116.744 52.3655C116.554 52.3643 116.367 52.4005 116.192 52.472L110.366 54.844C110.012 54.9884 109.73 55.2677 109.582 55.6206C109.434 55.9734 109.431 56.3708 109.575 56.7256C109.718 57.0803 109.997 57.3633 110.348 57.5124C110.7 57.6615 111.097 57.6645 111.45 57.5207L117.276 55.1487C117.63 55.0035 117.912 54.7238 118.06 54.3708C118.208 54.0178 118.211 53.6203 118.068 53.2653Z" fill="white"/>
<path d="M50.2441 34.4599L46.705 29.251C46.564 29.0434 46.3714 28.8764 46.1463 28.7663C45.9212 28.6562 45.6713 28.6068 45.4214 28.6232C45.0049 28.9121 44.591 29.209 44.1849 29.5137C44.0929 29.7345 44.0574 29.9749 44.0816 30.213C44.1059 30.4511 44.1891 30.6794 44.3238 30.877L47.8629 36.0859C48.0779 36.4026 48.4096 36.6206 48.7849 36.692C49.1602 36.7634 49.5485 36.6824 49.8643 36.4668C50.18 36.2512 50.3975 35.9186 50.4687 35.5423C50.5399 35.1659 50.4591 34.7766 50.2441 34.4599Z" fill="white"/>
<path d="M35.8067 54.844L29.9807 52.472C29.6267 52.3279 29.2302 52.3306 28.8782 52.4796C28.5263 52.6287 28.2478 52.9118 28.104 53.2667C27.9602 53.6216 27.9629 54.0192 28.1114 54.3722C28.26 54.7251 28.5423 55.0044 28.8962 55.1487L34.7222 57.5207C35.0761 57.6645 35.4725 57.6615 35.8242 57.5124C36.1759 57.3633 36.4542 57.0803 36.598 56.7256C36.7417 56.3708 36.7391 55.9734 36.5907 55.6206C36.4424 55.2677 36.1604 54.9884 35.8067 54.844Z" fill="white"/>
<path d="M73.2181 106.876C72.8362 106.876 72.4701 107.029 72.2001 107.3C71.93 107.57 71.778 107.938 71.7773 108.32V114.625C71.7773 115.008 71.9291 115.375 72.1993 115.646C72.4695 115.917 72.836 116.07 73.2181 116.07C73.6003 116.07 73.9667 115.917 74.2369 115.646C74.5071 115.375 74.6589 115.008 74.6589 114.625V108.32C74.6583 107.938 74.5062 107.57 74.2362 107.3C73.9661 107.029 73.6001 106.876 73.2181 106.876Z" fill="white"/>
<path d="M101.85 106.172L98.3108 100.963C98.2043 100.806 98.0681 100.672 97.9099 100.568C97.7517 100.464 97.5746 100.392 97.3887 100.357C97.2029 100.321 97.0119 100.323 96.8267 100.362C96.6415 100.4 96.4657 100.475 96.3094 100.582C96.153 100.689 96.0192 100.825 95.9155 100.984C95.8118 101.142 95.7402 101.32 95.7049 101.506C95.6697 101.693 95.6714 101.884 95.7099 102.07C95.7484 102.256 95.8231 102.432 95.9295 102.589L99.4686 107.798C99.6097 108.005 99.8022 108.172 100.027 108.282C100.252 108.392 100.502 108.442 100.752 108.425C101.169 108.137 101.583 107.84 101.989 107.535C102.081 107.314 102.116 107.074 102.092 106.836C102.068 106.598 101.985 106.369 101.85 106.172Z" fill="white"/>
<path d="M117.277 81.9L111.451 79.528C111.097 79.3839 110.701 79.3866 110.349 79.5357C109.997 79.6847 109.718 79.9678 109.575 80.3227C109.431 80.6776 109.434 81.0753 109.582 81.4282C109.731 81.7811 110.013 82.0605 110.367 82.2047L116.193 84.5767C116.547 84.7205 116.943 84.7175 117.295 84.5685C117.647 84.4194 117.925 84.1363 118.069 83.7816C118.212 83.4269 118.21 83.0294 118.061 82.6766C117.913 82.3238 117.631 82.0445 117.277 81.9Z" fill="white"/>
<path d="M49.8643 100.582C49.5485 100.366 49.1602 100.285 48.7849 100.357C48.4096 100.428 48.078 100.646 47.8629 100.963L44.3238 106.172C44.1891 106.369 44.1059 106.598 44.0816 106.836C44.0574 107.074 44.0929 107.314 44.1849 107.535C44.591 107.84 45.0049 108.137 45.4214 108.426C45.6713 108.442 45.9212 108.393 46.1463 108.282C46.3714 108.172 46.564 108.005 46.705 107.798L50.2441 102.589C50.3506 102.432 50.4252 102.256 50.4638 102.07C50.5023 101.884 50.504 101.693 50.4687 101.506C50.4335 101.32 50.3619 101.143 50.2582 100.984C50.1545 100.825 50.0206 100.689 49.8643 100.582Z" fill="white"/>
<path d="M36.5989 80.3213C36.5277 80.1457 36.4227 79.9858 36.2899 79.8509C36.1571 79.716 35.9991 79.6086 35.825 79.5349C35.6508 79.4613 35.4638 79.4227 35.2748 79.4215C35.0857 79.4203 34.8983 79.4565 34.7232 79.528L28.8972 81.9C28.5435 82.0444 28.2615 82.3238 28.1132 82.6766C27.9648 83.0294 27.9622 83.4269 28.106 83.7816C28.2497 84.1363 28.528 84.4194 28.8797 84.5685C29.2314 84.7175 29.6278 84.7205 29.9817 84.5767L35.8077 82.2047C36.1612 82.0595 36.4429 81.7798 36.5912 81.4268C36.7395 81.0738 36.7422 80.6763 36.5989 80.3213Z" fill="white"/>
<path d="M75.0866 67.8075C75.2196 68.5972 75.0349 69.4075 74.5728 70.0608C74.1107 70.7141 73.4091 71.1569 72.6219 71.2921L47.0548 75.6529C46.6648 75.7194 46.2656 75.7083 45.8799 75.6201C45.4942 75.5319 45.1295 75.3683 44.8069 75.1388C44.4842 74.9093 44.2097 74.6183 43.9992 74.2825C43.7886 73.9466 43.6461 73.5725 43.5798 73.1814C43.5134 72.7903 43.5246 72.39 43.6125 72.0032C43.7005 71.6164 43.8635 71.2508 44.0924 70.9272C44.3213 70.6037 44.6115 70.3285 44.9464 70.1173C45.2814 69.9062 45.6545 69.7633 46.0445 69.6968L71.6115 65.336C72.3991 65.2026 73.2072 65.3879 73.8587 65.8512C74.5102 66.3145 74.9518 67.0181 75.0866 67.8075Z" fill="#3F3D56"/>
<path d="M101.996 96.2113C101.629 96.5817 101.13 96.7909 100.609 96.7929C100.088 96.795 99.5876 96.5898 99.2174 96.2223L71.6949 68.8408C71.3255 68.4726 71.1171 67.9725 71.1152 67.4503C71.1134 66.9282 71.3185 66.4266 71.6852 66.0559C72.052 65.6852 72.5506 65.4757 73.0713 65.4734C73.5921 65.4711 74.0924 65.6762 74.4624 66.0437L101.985 93.4252C102.354 93.7935 102.563 94.2937 102.565 94.816C102.567 95.3383 102.362 95.8401 101.996 96.2113Z" fill="#3F3D56"/>
<path d="M73.0871 71.9392C74.968 71.9392 76.4927 70.4103 76.4927 68.5243C76.4927 66.6384 74.968 65.1095 73.0871 65.1095C71.2063 65.1095 69.6816 66.6384 69.6816 68.5243C69.6816 70.4103 71.2063 71.9392 73.0871 71.9392Z" fill="#CCCCCC"/>
<path d="M49.6302 9.31058C44.4028 17.5515 36.4269 23.0206 26.5907 26.6134C26.3963 26.7594 26.1752 26.8656 25.9399 26.9258C25.7046 26.9861 25.4598 26.9993 25.2194 26.9647C24.9791 26.9301 24.7478 26.8484 24.539 26.7242C24.3301 26.6 24.1477 26.4358 24.0021 26.2409C18.6591 19.0874 19.8656 8.86374 26.9172 3.39769C28.622 2.07848 30.5712 1.11199 32.6515 0.554326C34.7319 -0.00333785 36.902 -0.141068 39.0359 0.149135C41.1698 0.439339 43.2249 1.15169 45.082 2.24484C46.9391 3.33799 48.5612 4.79016 49.854 6.51704L50.0018 6.7149C50.1474 6.9098 50.2532 7.13154 50.3133 7.36746C50.3734 7.60339 50.3866 7.84888 50.3521 8.08991C50.3176 8.33094 50.2361 8.5628 50.1122 8.77224C49.9884 8.98168 49.8246 9.16461 49.6302 9.31058Z" fill="#E6E6E6"/>
<path d="M96.3196 6.51704C97.6124 4.79016 99.2345 3.33799 101.092 2.24484C102.949 1.15169 105.004 0.43934 107.138 0.149136C109.272 -0.141067 111.442 -0.00334073 113.522 0.554324C115.602 1.11199 117.552 2.07848 119.256 3.39769C126.308 8.86374 127.514 19.0874 122.172 26.2409C122.026 26.4358 121.844 26.6 121.635 26.7242C121.426 26.8484 121.195 26.9301 120.954 26.9647C120.714 26.9993 120.469 26.9861 120.234 26.9258C119.998 26.8656 119.777 26.7594 119.583 26.6134C110.452 23.1079 102.963 17.0415 96.5434 9.31058C96.1508 9.01577 95.8912 8.57668 95.8215 8.0899C95.7518 7.60311 95.8778 7.10851 96.1718 6.71489L96.3196 6.51704Z" fill="#E6E6E6"/>
<path d="M94.0292 117.453C93.6963 117.641 93.4511 117.953 93.3473 118.322C93.2435 118.69 93.2896 119.085 93.4755 119.42L101.791 134.32C101.977 134.654 102.289 134.9 102.656 135.004C103.024 135.108 103.418 135.062 103.751 134.874C104.085 134.687 104.331 134.375 104.434 134.006C104.538 133.638 104.492 133.243 104.305 132.908L95.9902 118.009C95.8031 117.675 95.4916 117.429 95.1241 117.325C94.7566 117.221 94.3629 117.267 94.0292 117.453Z" fill="#E6E6E6"/>
<path d="M50.184 118.009L41.8689 132.908C41.6824 133.243 41.6359 133.638 41.7398 134.006C41.8437 134.375 42.0893 134.687 42.4228 134.874C42.7562 135.062 43.15 135.108 43.5177 135.004C43.8854 134.9 44.1968 134.654 44.3835 134.32L52.6987 119.42C52.7911 119.254 52.8501 119.072 52.8723 118.883C52.8946 118.695 52.8795 118.504 52.8281 118.321C52.7767 118.139 52.6899 117.968 52.5728 117.819C52.4556 117.67 52.3102 117.546 52.1451 117.453C51.98 117.36 51.7982 117.301 51.6103 117.279C51.4224 117.257 51.2319 117.272 51.0498 117.323C50.8677 117.375 50.6975 117.462 50.549 117.58C50.4004 117.697 50.2764 117.843 50.184 118.009Z" fill="#E6E6E6"/>
<path d="M103.475 138.134C105.934 138.134 107.928 136.135 107.928 133.669C107.928 131.203 105.934 129.203 103.475 129.203C101.015 129.203 99.0215 131.203 99.0215 133.669C99.0215 136.135 101.015 138.134 103.475 138.134Z" fill="#E6E6E6"/>
<path d="M106.617 23.8686C109.077 23.8686 111.071 21.8693 111.071 19.4031C111.071 16.9368 109.077 14.9375 106.617 14.9375C104.158 14.9375 102.164 16.9368 102.164 19.4031C102.164 21.8693 104.158 23.8686 106.617 23.8686Z" fill="#E6E6E6"/>
<path d="M72.8245 13.3614C75.284 13.3614 77.2778 11.3621 77.2778 8.89586C77.2778 6.4296 75.284 4.4303 72.8245 4.4303C70.3649 4.4303 68.3711 6.4296 68.3711 8.89586C68.3711 11.3621 70.3649 13.3614 72.8245 13.3614Z" fill="#E6E6E6"/>
<path d="M40.6037 23.3434C43.0633 23.3434 45.0571 21.3441 45.0571 18.8778C45.0571 16.4115 43.0633 14.4122 40.6037 14.4122C38.1442 14.4122 36.1504 16.4115 36.1504 18.8778C36.1504 21.3441 38.1442 23.3434 40.6037 23.3434Z" fill="#E6E6E6"/>
<path d="M43.4846 138.134C45.9441 138.134 47.938 136.135 47.938 133.669C47.938 131.203 45.9441 129.203 43.4846 129.203C41.0251 129.203 39.0312 131.203 39.0312 133.669C39.0312 136.135 41.0251 138.134 43.4846 138.134Z" fill="#E6E6E6"/>
<path d="M99.9816 93.6998C100.157 93.9754 100.391 94.2091 100.666 94.3844C100.942 94.5596 101.252 94.6722 101.575 94.7142C101.899 94.7562 102.227 94.7266 102.538 94.6274C102.849 94.5283 103.134 94.362 103.374 94.1403L110.362 97.8949L109.987 93.7809L103.409 90.8462C103.011 90.467 102.488 90.2474 101.939 90.229C101.39 90.2107 100.854 90.3948 100.431 90.7465C100.009 91.0983 99.7297 91.5932 99.6468 92.1375C99.5639 92.6818 99.683 93.2377 99.9816 93.6998Z" fill="#FFB7B7"/>
<path d="M105.072 95.1356L107.811 91.3452L121.003 97.5987L137.419 94.51C138.231 94.3574 139.066 94.3857 139.865 94.5931C140.665 94.8004 141.409 95.1817 142.044 95.7097C142.68 96.2378 143.192 96.8998 143.544 97.6487C143.896 98.3975 144.08 99.2149 144.081 100.043C144.082 101.538 143.492 102.973 142.439 104.032C141.387 105.091 139.958 105.689 138.467 105.693L119.654 105.728L105.072 95.1356Z" fill="#3F3D56"/>
<path d="M100.855 160.603L98.084 159.274L101.89 147.661L105.979 149.623L100.855 160.603Z" fill="#FFB7B7"/>
<path d="M119.43 158.73C119.229 158.857 119.027 158.981 118.824 159.106C118.419 159.355 118.01 159.6 117.601 159.84C117.395 159.961 117.188 160.081 116.982 160.2V160.206L116.97 160.208L116.966 160.21L116.652 160.287L116.203 159.096L115.995 158.547L115.702 157.769L115.165 156.347L112.336 148.857L116.734 147.77L116.899 148.445H116.901L116.982 148.78L118.519 155.029L118.832 156.306L118.842 156.345L119.031 157.108L119.194 157.769L119.375 158.508L119.43 158.73Z" fill="#FFB7B7"/>
<path d="M145.664 132.43C145.385 132.878 145.1 133.325 144.813 133.768C144.28 134.593 143.733 135.405 143.171 136.205C143.171 136.207 143.169 136.207 143.167 136.209C142.839 136.513 142.477 136.778 142.088 136.999C142.072 137.011 142.054 137.019 142.037 137.029C141.751 137.188 141.446 137.311 141.13 137.395C141.016 137.423 140.9 137.452 140.786 137.48C140.375 137.578 139.968 137.662 139.563 137.735C138.842 137.864 138.13 137.956 137.422 138.013C137.365 138.019 137.308 138.023 137.251 138.027C134.339 138.241 131.504 137.897 128.545 137.331C127.083 137.054 125.592 136.721 124.047 136.376C123.542 136.262 123.036 136.15 122.523 136.037C122.484 136.029 122.443 136.019 122.403 136.011C121.67 135.85 120.925 135.691 120.162 135.533C119.201 135.335 118.21 135.144 117.181 134.962L117.254 136.417C117.315 137.536 117.547 138.64 117.942 139.688C118.381 140.978 118.729 141.998 117.995 144.123L117.641 145.151C117.824 145.662 117.887 146.208 117.825 146.748C117.762 147.287 117.576 147.804 117.28 148.259L117.209 148.367L120.162 155.859L120.353 156.344H118.841L116.981 156.346H113.829L109.28 147.196L109.062 146.759V146.737L109.533 129.152C109.539 128.997 109.551 128.84 109.571 128.685C109.654 127.98 109.876 127.298 110.225 126.68C110.573 126.062 111.041 125.52 111.6 125.085C112.137 124.665 112.751 124.356 113.407 124.176C114.064 123.996 114.749 123.948 115.424 124.036L116.981 124.238L120.162 124.65L122.403 124.942L122.447 124.948L129.055 125.805L129.53 123.867L129.617 123.834L132.399 122.812L142.021 119.275L142.046 119.267L142.679 119.034L142.754 119.157C142.776 119.194 142.799 119.23 142.819 119.267C143.444 120.392 143.954 121.577 144.339 122.806C144.987 124.812 145.52 126.854 145.937 128.922C145.955 129.011 145.971 129.093 145.986 129.166L145.992 129.189C145.998 129.224 146.002 129.246 146.004 129.252C146.226 130.179 146.071 131.309 145.664 132.43Z" fill="#2F2E41"/>
<path d="M146.072 125.949C146.042 125.818 146.003 125.686 145.962 125.557C145.639 124.584 145.263 123.628 144.835 122.696C144.354 121.635 143.778 120.498 143.093 119.268C142.761 118.672 142.404 118.052 142.022 117.409C141.831 117.086 141.632 116.758 141.426 116.423C141.418 116.408 141.409 116.393 141.399 116.378L141.34 116.28L131.82 117.558L128.275 118.033L128.063 119.805L128.012 120.243C128.01 120.243 128.01 120.243 128.012 120.245L127.87 121.441V121.443L127.681 123.023L127.664 123.021L122.404 122.337L116.982 121.633L114.07 121.256C113.395 121.167 112.709 121.215 112.053 121.395C111.396 121.575 110.782 121.884 110.246 122.304C109.686 122.739 109.219 123.282 108.87 123.9C108.522 124.518 108.3 125.199 108.217 125.904C108.199 126.047 108.186 126.194 108.18 126.339L105.433 132.867C103.789 136.771 102.742 140.902 102.327 145.119L100.312 151.578L100.599 151.605L104.869 152.003L105.997 152.109L108.479 148.474C108.762 148.06 109.031 147.633 109.281 147.197C109.693 146.484 110.06 145.745 110.378 144.985L115.749 132.169C116.164 132.241 116.575 132.309 116.982 132.373C118.865 132.679 120.672 132.929 122.404 133.122C128.035 133.753 132.911 133.802 137.252 133.267C138.471 133.118 139.649 132.922 140.787 132.679C141.204 132.592 141.616 132.497 142.022 132.396C142.118 132.373 142.211 132.351 142.305 132.326C143.146 132.109 143.919 131.683 144.554 131.089C145.189 130.494 145.664 129.749 145.938 128.922C146.264 127.964 146.311 126.933 146.072 125.949Z" fill="#2F2E41"/>
<path d="M101.74 158.706L98.7419 157.266L98.2718 157.039L97.5208 158.888L92.2783 160.045C92.0191 160.102 91.7849 160.241 91.6098 160.441C91.4348 160.641 91.3281 160.891 91.3054 161.157C91.2826 161.422 91.345 161.687 91.4835 161.914C91.6219 162.141 91.8291 162.318 92.0748 162.418L97.1972 164.514L98.8233 163.047L98.4244 165.016L100.354 165.806L102.468 159.057L101.74 158.706Z" fill="#2F2E41"/>
<path d="M120.162 155.859L120.354 156.344H120.162V155.859Z" fill="#2F2E41"/>
<path d="M119.118 156.448L115.977 157.539L115.484 157.71L116.248 159.554L113.334 164.075C113.19 164.298 113.121 164.562 113.137 164.828C113.153 165.093 113.253 165.347 113.423 165.551C113.593 165.756 113.824 165.9 114.081 165.964C114.339 166.027 114.61 166.007 114.855 165.905L119.966 163.78L120.092 161.59L121.19 163.271L123.115 162.471L119.882 156.184L119.118 156.448Z" fill="#2F2E41"/>
<path d="M145.288 128.906C145.102 128.905 144.918 128.86 144.753 128.772L128.177 120.088L127.986 119.301L127.625 116.813L127.63 116.79L129.206 109.502C129.177 109.44 129.117 109.337 129.049 109.221C128.345 108.026 126.203 104.387 130.291 99.3758L137.467 90.986L143.627 90.7202L143.697 90.809C145.344 92.8818 146.455 95.3306 146.931 97.9376C147.406 100.545 147.232 103.229 146.424 105.752L145.783 117.367L146.471 119.713C146.873 121.091 146.806 122.565 146.282 123.901L146.439 127.699C146.445 127.855 146.42 128.01 146.365 128.156C146.31 128.302 146.226 128.435 146.119 128.547C146.012 128.66 145.883 128.75 145.74 128.811C145.597 128.873 145.444 128.905 145.288 128.906Z" fill="#3F3D56"/>
<path d="M130.91 138.485C131.191 138.318 131.432 138.092 131.616 137.822C131.8 137.552 131.923 137.245 131.976 136.923C132.03 136.6 132.011 136.27 131.923 135.955C131.835 135.64 131.68 135.348 131.467 135.1L135.452 128.228L131.339 128.46L128.185 134.951C127.793 135.336 127.556 135.853 127.519 136.402C127.481 136.952 127.646 137.496 127.982 137.931C128.318 138.367 128.802 138.664 129.341 138.766C129.881 138.868 130.439 138.768 130.91 138.485Z" fill="#FFB7B7"/>
<path d="M132.518 133.432L128.836 130.556L135.527 117.553L133.02 100.994C132.896 100.175 132.953 99.3396 133.188 98.5458C133.422 97.752 133.828 97.0197 134.377 96.4008C134.925 95.782 135.603 95.2918 136.361 94.9651C137.12 94.6384 137.941 94.4831 138.766 94.5104C140.256 94.5612 141.666 95.2029 142.685 96.2945C143.704 97.3861 144.25 98.8385 144.202 100.333L143.583 119.188L132.518 133.432Z" fill="#3F3D56"/>
<path d="M133.516 87.4999V81.3882C133.514 79.2162 134.373 77.1326 135.904 75.5958C137.435 74.0589 139.511 73.1948 141.678 73.1934C143.844 73.192 145.922 74.0535 147.454 75.5883C148.987 77.1232 149.849 79.2057 149.85 81.3777V81.3882C151.289 84.3961 150.389 85.8261 149.85 87.4999C149.85 87.7914 149.734 88.0708 149.528 88.2769C149.323 88.4831 149.044 88.5991 148.753 88.5996H134.613C134.322 88.5992 134.043 88.4833 133.838 88.2771C133.632 88.071 133.516 87.7915 133.516 87.4999Z" fill="#2F2E41"/>
<path d="M139.006 88.2023C142.382 88.2023 145.119 85.4577 145.119 82.0721C145.119 78.6865 142.382 75.9419 139.006 75.9419C135.63 75.9419 132.893 78.6865 132.893 82.0721C132.893 85.4577 135.63 88.2023 139.006 88.2023Z" fill="#FFB7B7"/>
<path d="M145.404 83.6792C145.348 83.6704 145.293 83.6587 145.237 83.65C144.284 83.4804 143.33 83.3137 142.38 83.1411L142.292 80.9802L141.14 82.916C138.513 83.7903 136.054 83.2961 133.742 82.2054C132.979 81.8423 132.239 81.4331 131.525 80.9802C131.72 79.785 132.178 78.6485 132.867 77.6538C133.555 76.6591 134.457 75.8314 135.506 75.2312C135.594 75.1814 135.678 75.1376 135.766 75.0937L135.767 75.0935L135.768 75.0928L135.768 75.0919L135.768 75.0908C135.917 75.0206 136.069 74.9533 136.221 74.8919C137.408 74.4267 138.702 74.3089 139.954 74.5522C141.205 74.7955 142.362 75.3899 143.289 76.2663C145.156 78.053 145.996 81.0036 145.404 83.6792Z" fill="#2F2E41"/>
</g>
<defs>
<clipPath id="clip0_76_170">
<rect width="177" height="166" fill="white"/>
</clipPath>
</defs>
</svg>
