<svg width="228" height="161" viewBox="0 0 228 161" fill="none" xmlns="http://www.w3.org/2000/svg">
<g clip-path="url(#clip0_76_124)">
<path d="M116.444 160.659C123.301 160.659 128.861 155.089 128.861 148.217C128.861 141.346 123.301 135.776 116.444 135.776C109.586 135.776 104.027 141.346 104.027 148.217C104.027 155.089 109.586 160.659 116.444 160.659Z" fill="#6C63FF"/>
<path d="M190.621 159.96C197.568 157.869 204.953 155.69 210.462 150.72C215.384 146.28 218.708 139.499 216.668 132.839C214.633 126.193 208.537 121.762 202.243 119.558C198.673 118.308 194.939 117.614 191.205 117.069C187.147 116.477 183.071 115.992 178.997 115.525C162.499 113.634 145.94 112.479 129.318 112.06C121.117 111.853 112.917 111.858 104.714 111.977C97.3883 112.084 89.6731 112.081 82.8772 108.961C77.5925 106.535 72.796 102.121 71.3235 96.3214C69.6237 89.626 72.7589 82.8077 77.2564 77.9586C79.6271 75.4027 82.3978 73.2514 85.256 71.2733C88.3568 69.1274 91.5657 67.1334 94.844 65.2721C101.301 61.608 108.051 58.4897 115.026 55.9495C118.466 54.696 121.957 53.6145 125.479 52.6169C128.453 51.7745 131.436 50.9308 134.31 49.7831C139.866 47.5642 145.15 43.8057 146.563 37.644C147.902 31.8042 145.645 25.4646 141.687 21.1263C137.108 16.1072 130.204 13.907 123.586 13.551C116.155 13.1513 108.896 15.0148 101.911 17.3797C94.4624 19.9021 87.1739 22.8024 79.5675 24.8455C72.0246 26.8696 64.3358 28.3017 56.5709 29.1288C52.7697 29.5344 48.8537 29.9924 45.0299 29.6819C41.8252 29.4217 38.6369 28.4773 36.2751 26.1983C34.2499 24.2442 33.0435 21.5587 33.4583 18.7246C33.5336 18.2099 34.314 18.4287 34.2392 18.9403C33.7343 22.3902 36.0746 25.5692 38.9586 27.1976C42.2917 29.0796 46.3476 29.0821 50.0584 28.8669C58.1046 28.38 66.0964 27.2223 73.9508 25.4061C81.6687 23.6398 89.1109 21.1147 96.5447 18.4174C103.605 15.8556 110.823 13.3553 118.366 12.8005C124.91 12.319 131.795 13.2744 137.496 16.7015C142.507 19.7134 146.192 24.7364 147.366 30.5003C148.513 36.1328 146.924 41.8019 142.669 45.7324C138.264 49.802 132.223 51.5418 126.593 53.1443C119.453 55.1767 112.466 57.5524 105.703 60.6371C98.8481 63.755 92.2736 67.4586 86.0526 71.7069C80.0478 75.8186 74.1217 80.9922 72.2225 88.3276C71.3379 91.7444 71.5012 95.3684 72.9814 98.5958C74.2976 101.465 76.4652 103.879 78.9904 105.741C85.0154 110.184 92.6089 111.096 99.8866 111.186C108.06 111.288 116.234 111.012 124.411 111.146C141.074 111.42 157.703 112.437 174.298 114.195C178.456 114.636 182.609 115.124 186.757 115.658C190.488 116.138 194.231 116.615 197.899 117.468C204.421 118.985 210.768 121.902 214.822 127.443C216.621 129.844 217.735 132.691 218.046 135.677C218.33 138.794 217.569 141.917 216.162 144.69C213.049 150.827 207.219 154.73 201.027 157.295C197.71 158.668 194.27 159.709 190.836 160.742C190.336 160.893 190.122 160.11 190.621 159.96Z" fill="#F2F2F2"/>
<path d="M33.9821 25.2889C37.56 25.2889 40.4604 22.3827 40.4604 18.7977C40.4604 15.2126 37.56 12.3064 33.9821 12.3064C30.4043 12.3064 27.5039 15.2126 27.5039 18.7977C27.5039 22.3827 30.4043 25.2889 33.9821 25.2889Z" fill="#F2F2F2"/>
<path d="M78.9235 37.5952C82.5014 37.5952 85.4018 34.689 85.4018 31.1039C85.4018 27.5189 82.5014 24.6127 78.9235 24.6127C75.3457 24.6127 72.4453 27.5189 72.4453 31.1039C72.4453 34.689 75.3457 37.5952 78.9235 37.5952Z" fill="#F2F2F2"/>
<path d="M116.984 12.9825C120.562 12.9825 123.462 10.0763 123.462 6.49126C123.462 2.90624 120.562 0 116.984 0C113.406 0 110.506 2.90624 110.506 6.49126C110.506 10.0763 113.406 12.9825 116.984 12.9825Z" fill="#F2F2F2"/>
<path d="M140.738 40.5704C144.316 40.5704 147.216 37.6642 147.216 34.0792C147.216 30.4941 144.316 27.5879 140.738 27.5879C137.16 27.5879 134.26 30.4941 134.26 34.0792C134.26 37.6642 137.16 40.5704 140.738 40.5704Z" fill="#F2F2F2"/>
<path d="M108.617 72.4858C112.195 72.4858 115.095 69.5796 115.095 65.9946C115.095 62.4095 112.195 59.5033 108.617 59.5033C105.039 59.5033 102.139 62.4095 102.139 65.9946C102.139 69.5796 105.039 72.4858 108.617 72.4858Z" fill="#F2F2F2"/>
<path d="M67.8571 87.9026C71.435 87.9026 74.3354 84.9963 74.3354 81.4113C74.3354 77.8263 71.435 74.92 67.8571 74.92C64.2793 74.92 61.3789 77.8263 61.3789 81.4113C61.3789 84.9963 64.2793 87.9026 67.8571 87.9026Z" fill="#F2F2F2"/>
<path d="M111.047 111.974C114.624 111.974 117.525 109.068 117.525 105.483C117.525 101.898 114.624 98.9917 111.047 98.9917C107.469 98.9917 104.568 101.898 104.568 105.483C104.568 109.068 107.469 111.974 111.047 111.974Z" fill="#F2F2F2"/>
<path d="M157.472 125.498C161.05 125.498 163.951 122.591 163.951 119.006C163.951 115.421 161.05 112.515 157.472 112.515C153.895 112.515 150.994 115.421 150.994 119.006C150.994 122.591 153.895 125.498 157.472 125.498Z" fill="#F2F2F2"/>
<path d="M211.728 122.523C215.306 122.523 218.206 119.616 218.206 116.031C218.206 112.446 215.306 109.54 211.728 109.54C208.15 109.54 205.25 112.446 205.25 116.031C205.25 119.616 208.15 122.523 211.728 122.523Z" fill="#F2F2F2"/>
<path d="M115.115 18.3928C95.7093 18.5301 79.8203 34.3315 79.5446 53.7746C79.5421 53.9541 79.5409 55.2163 79.541 56.8672C79.5412 59.2878 80.5008 61.6091 82.2089 63.3208C83.917 65.0324 86.2337 65.9942 88.6494 65.9945C89.8469 65.9942 91.0326 65.7575 92.1388 65.2979C93.2449 64.8383 94.2499 64.1648 95.0962 63.3159C95.9425 62.4669 96.6136 61.4592 97.071 60.3503C97.5285 59.2415 97.7634 58.0531 97.7624 56.8532C97.7615 55.7302 97.7609 54.9529 97.7609 54.9052C97.7603 51.9003 98.5403 48.947 100.024 46.3358C101.508 43.7246 103.645 41.5454 106.224 40.0127C108.804 38.48 111.737 37.6464 114.735 37.5941C117.734 37.5418 120.694 38.2725 123.325 39.7143C125.956 41.1561 128.168 43.2594 129.742 45.8172C131.315 48.375 132.198 51.2994 132.301 54.3025C132.405 57.3056 131.727 60.284 130.334 62.9448C128.94 65.6057 126.879 67.8572 124.354 69.4779L124.357 69.4818C124.357 69.4818 111.393 77.8446 107.441 89.3168L107.444 89.3176C106.749 91.6678 106.397 94.1063 106.399 96.5575C106.399 97.5651 106.458 106.381 106.572 113.537C106.612 116.006 107.619 118.36 109.376 120.092C111.133 121.823 113.498 122.794 115.963 122.793C117.201 122.793 118.427 122.548 119.57 122.071C120.714 121.594 121.752 120.896 122.624 120.016C123.497 119.136 124.188 118.091 124.656 116.943C125.125 115.794 125.362 114.564 125.355 113.324C125.315 106.77 125.293 99.1399 125.293 98.586C125.293 91.5417 132.075 84.523 137.646 79.946C144.061 74.6753 148.678 67.4928 150.532 59.3905C150.942 57.7224 151.168 56.0142 151.206 54.2967C151.206 49.5597 150.271 44.8697 148.454 40.4966C146.637 36.1235 143.974 32.154 140.619 28.8166C137.265 25.4792 133.284 22.84 128.907 21.051C124.529 19.262 119.842 18.3586 115.115 18.3928Z" fill="#6C63FF"/>
<path d="M227.678 161H0.320467C0.235389 161 0.153881 160.966 0.0938086 160.905C0.033736 160.845 0 160.763 0 160.678C0 160.593 0.033736 160.511 0.0938086 160.451C0.153881 160.39 0.235389 160.356 0.320467 160.356H227.678C227.763 160.356 227.845 160.39 227.905 160.45C227.965 160.511 227.999 160.593 227.999 160.678C227.999 160.763 227.965 160.845 227.905 160.906C227.845 160.966 227.763 161 227.678 161Z" fill="#3F3D56"/>
<path d="M169.635 73.8371C174.107 73.8371 177.733 70.2042 177.733 65.723C177.733 61.2417 174.107 57.6089 169.635 57.6089C165.163 57.6089 161.537 61.2417 161.537 65.723C161.537 70.2042 165.163 73.8371 169.635 73.8371Z" fill="#2F2E41"/>
<path d="M154.671 157.448H151.362L149.787 144.658H154.671L154.671 157.448Z" fill="#A0616A"/>
<path d="M148.999 156.5H155.381V160.527H144.98C144.98 159.998 145.084 159.475 145.286 158.986C145.488 158.498 145.784 158.054 146.157 157.68C146.531 157.306 146.974 157.009 147.461 156.807C147.949 156.605 148.471 156.5 148.999 156.5Z" fill="#2F2E41"/>
<path d="M180.313 157.448H177.004L175.43 144.658H180.314L180.313 157.448Z" fill="#A0616A"/>
<path d="M174.641 156.5H181.023V160.527H170.623C170.623 159.998 170.727 159.475 170.929 158.986C171.131 158.498 171.427 158.054 171.8 157.68C172.173 157.306 172.616 157.009 173.104 156.807C173.591 156.605 174.114 156.5 174.641 156.5Z" fill="#2F2E41"/>
<path d="M168.405 73.8844C172.067 73.8844 175.035 70.9102 175.035 67.2414C175.035 63.5726 172.067 60.5984 168.405 60.5984C164.744 60.5984 161.775 63.5726 161.775 67.2414C161.775 70.9102 164.744 73.8844 168.405 73.8844Z" fill="#A0616A"/>
<path d="M172.356 95.315L175.322 88.4856C176.043 86.8835 176.249 85.0969 175.913 83.3722C175.577 81.6475 174.715 80.0699 173.447 78.8569C173.186 78.5988 172.909 78.3576 172.618 78.1348C171.154 76.9874 169.35 76.3621 167.492 76.3578C166.242 76.3626 165.009 76.6376 163.875 77.1638C163.778 77.2071 163.683 77.253 163.586 77.299C163.4 77.3883 163.216 77.4856 163.038 77.5857C161.876 78.2543 160.887 79.1871 160.151 80.3091C159.415 81.431 158.952 82.7105 158.8 84.0445L157.491 95.0364C157.162 95.8992 145.415 127.057 149.523 150.845C149.567 151.099 149.69 151.332 149.876 151.511C150.061 151.69 150.299 151.804 150.554 151.838L154.719 152.406C155.023 152.447 155.332 152.372 155.583 152.195C155.834 152.018 156.008 151.752 156.071 151.451L163.06 118.072C163.103 117.865 163.215 117.678 163.377 117.542C163.539 117.405 163.742 117.328 163.953 117.32C164.165 117.313 164.372 117.377 164.543 117.502C164.714 117.627 164.838 117.806 164.895 118.01L174.769 153.112C174.839 153.367 174.991 153.592 175.201 153.752C175.412 153.912 175.668 153.999 175.933 153.999C176.011 153.998 176.09 153.991 176.167 153.977L181.255 152.995C181.551 152.94 181.816 152.776 181.997 152.535C182.178 152.294 182.263 151.995 182.235 151.694C181.488 143.34 177.514 101.49 172.356 95.315Z" fill="#2F2E41"/>
<path d="M142.639 72.7698C142.593 73.1647 142.634 73.5649 142.759 73.9423C142.884 74.3196 143.091 74.6649 143.363 74.9538C143.636 75.2427 143.968 75.4682 144.337 75.6144C144.706 75.7606 145.103 75.8239 145.499 75.7999L149.205 84.7234L152.008 80.5597L148.059 72.7242C147.975 72.0601 147.65 71.4501 147.147 71.0097C146.644 70.5693 145.997 70.3292 145.329 70.3348C144.661 70.3404 144.018 70.5914 143.523 71.0402C143.027 71.489 142.713 72.1044 142.639 72.7698Z" fill="#A0616A"/>
<path d="M168.037 104.3C168.431 104.253 168.81 104.12 169.147 103.91C169.484 103.7 169.771 103.419 169.988 103.086C170.205 102.753 170.346 102.376 170.402 101.983C170.458 101.589 170.427 101.188 170.312 100.807L178.109 95.1172L173.415 93.3558L166.73 99.0294C166.105 99.2663 165.589 99.7246 165.279 100.318C164.969 100.91 164.886 101.597 165.047 102.246C165.208 102.896 165.602 103.464 166.153 103.843C166.704 104.221 167.374 104.384 168.037 104.3Z" fill="#A0616A"/>
<path d="M155.327 90.6725C155.028 90.6722 154.73 90.6427 154.436 90.5845C153.727 90.4493 153.062 90.1413 152.5 89.6877C151.937 89.2341 151.495 88.6489 151.211 87.9836L146.02 81.6403C145.91 81.5061 145.83 81.3501 145.785 81.1825C145.741 81.0149 145.732 80.8398 145.761 80.6687C145.789 80.4976 145.854 80.3345 145.95 80.1905C146.046 80.0464 146.172 79.9247 146.32 79.8334L150.013 77.5423C150.15 77.4577 150.301 77.401 150.46 77.3754C150.618 77.3499 150.78 77.3561 150.936 77.3935C151.092 77.431 151.239 77.4991 151.369 77.5938C151.498 77.6885 151.608 77.808 151.691 77.9453L155.35 83.986L162.358 78.7966C162.916 78.5035 163.56 78.4213 164.174 78.565C164.787 78.7088 165.329 79.0688 165.699 79.5795C166.069 80.0901 166.244 80.7173 166.191 81.3463C166.138 81.9753 165.861 82.5643 165.411 83.0056L158.416 89.3986C157.594 90.2149 156.484 90.6728 155.327 90.6725Z" fill="#2F2E41"/>
<path d="M174.262 100.213C174.253 100.213 174.243 100.213 174.234 100.212C174.063 100.208 173.896 100.168 173.742 100.095C173.588 100.022 173.451 99.9171 173.34 99.7875L170.056 95.9487C169.944 95.8179 169.861 95.6649 169.813 95.4997C169.764 95.3345 169.752 95.1608 169.775 94.9903C169.799 94.8197 169.858 94.656 169.949 94.5101C170.04 94.3642 170.162 94.2394 170.305 94.1439L176.454 90.0361L170.883 83.3251C170.559 82.7838 170.44 82.1437 170.548 81.5217C170.656 80.8998 170.984 80.3376 171.471 79.9378C171.959 79.5381 172.574 79.3274 173.204 79.3443C173.833 79.3613 174.436 79.6047 174.902 80.0301L181.672 86.66C182.205 87.1478 182.612 87.7579 182.858 88.4378C183.103 89.1178 183.181 89.8474 183.083 90.564C182.986 91.2806 182.716 91.9627 182.298 92.5519C181.879 93.1411 181.324 93.6196 180.68 93.9466L175.146 99.8303C175.033 99.951 174.896 100.047 174.744 100.113C174.592 100.178 174.428 100.212 174.262 100.213Z" fill="#2F2E41"/>
<path d="M166.718 86.0673C166.665 86.0672 166.613 86.0639 166.56 86.0572C166.332 86.0294 166.116 85.9364 165.938 85.7892C165.761 85.6421 165.629 85.447 165.559 85.2272L163.091 77.6461C163.029 77.4545 163.039 77.2468 163.118 77.0617C163.197 76.8765 163.34 76.7262 163.521 76.6387L163.601 76.6008C163.674 76.5662 163.746 76.532 163.819 76.4993C164.97 75.9645 166.223 75.6856 167.491 75.6816C169.138 75.6847 170.748 76.1694 172.123 77.0764C172.308 77.1994 172.437 77.39 172.482 77.6073C172.528 77.8245 172.486 78.051 172.367 78.2379L167.738 85.5048C167.629 85.6773 167.479 85.8195 167.3 85.9178C167.122 86.0162 166.922 86.0676 166.718 86.0673Z" fill="#E6E6E6"/>
<path d="M176.019 62.1005C177.482 62.1005 178.669 60.9118 178.669 59.4454C178.669 57.979 177.482 56.7903 176.019 56.7903C174.555 56.7903 173.369 57.979 173.369 59.4454C173.369 60.9118 174.555 62.1005 176.019 62.1005Z" fill="#2F2E41"/>
<path d="M166.936 56.527C165.075 56.527 163.29 57.2679 161.974 58.5867C160.657 59.9054 159.918 61.6941 159.918 63.5592V66.5343H163.57L165.316 63.5592L165.841 66.5343H176.923L173.954 63.5592C173.954 61.6941 173.215 59.9054 171.899 58.5867C170.582 57.2679 168.797 56.527 166.936 56.527Z" fill="#2F2E41"/>
<path d="M177.381 57.6268C177.674 56.7087 178.281 55.9235 179.094 55.4092C179.908 54.895 180.876 54.6846 181.829 54.8151C183.518 55.0979 184.853 56.458 185.649 57.9771C186.444 59.4962 186.812 61.1964 187.346 62.8261C187.881 64.4558 188.64 66.0943 189.99 67.1493C191.34 68.2042 193.412 68.4904 194.738 67.4052C194.586 68.5361 194.084 69.5908 193.301 70.4199C192.519 71.2491 191.496 71.8107 190.378 72.0255C189.259 72.2402 188.102 72.0972 187.069 71.6166C186.036 71.136 185.18 70.3422 184.622 69.3475C183.922 68.1001 183.741 66.6382 183.534 65.2225C183.326 63.8069 183.057 62.3421 182.222 61.1816C181.386 60.0211 179.822 59.2632 178.496 59.7918L177.381 57.6268Z" fill="#2F2E41"/>
<path d="M91.2198 61.6774C88.8041 61.6771 86.4874 60.7154 84.7793 59.0037C83.0712 57.2921 82.1115 54.9707 82.1114 52.5501C82.1112 50.8992 82.1124 49.637 82.1149 49.4575C82.1917 43.8029 83.6129 38.2482 86.2607 33.254C81.9105 39.2214 79.5185 46.3959 79.4157 53.785C79.4132 53.9645 79.412 55.2267 79.4121 56.8776C79.4123 59.2982 80.3719 61.6196 82.08 63.3312C83.7882 65.0429 86.1048 66.0046 88.5205 66.0049C90.5056 66.0041 92.4361 65.3542 94.0189 64.1537C95.6017 62.9533 96.7502 61.268 97.2899 59.3539C95.622 60.8525 93.46 61.6801 91.2198 61.6774Z" fill="#3F3D56"/>
<path d="M115.731 37.6248C118.524 37.7584 121.242 38.5692 123.653 39.9875C126.064 41.4059 128.096 43.3894 129.574 45.7678C131.051 48.1461 131.931 50.8483 132.136 53.6422C132.342 56.4361 131.868 59.2383 130.755 61.8082C132.365 59.9135 133.548 57.6932 134.224 55.2986C134.901 52.904 135.053 50.3916 134.673 47.9324C134.292 45.4733 133.386 43.1254 132.018 41.0488C130.649 38.9721 128.85 37.2155 126.742 35.8988C124.635 34.5821 122.269 33.7362 119.806 33.4187C117.343 33.1013 114.84 33.3198 112.469 34.0594C110.097 34.7989 107.913 36.0421 106.065 37.7042C104.216 39.3663 102.747 41.4082 101.758 43.6908C103.468 41.6751 105.617 40.0798 108.04 39.0281C110.462 37.9764 113.094 37.4962 115.731 37.6248Z" fill="#3F3D56"/>
<path d="M118.533 118.476C116.069 118.476 113.703 117.506 111.946 115.775C110.189 114.043 109.182 111.689 109.142 109.22C109.028 102.064 108.969 93.248 108.969 92.2404C108.967 89.7892 109.319 87.3506 110.014 85.0005L110.011 84.9996C110.421 83.82 110.917 82.6719 111.494 81.5645C109.723 83.9295 108.313 86.5458 107.312 89.3272L107.315 89.328C106.62 91.6782 106.268 94.1167 106.27 96.5679C106.27 97.5755 106.329 106.392 106.443 113.547C106.483 116.016 107.49 118.371 109.247 120.102C111.004 121.834 113.369 122.804 115.834 122.803C117.866 122.803 119.843 122.143 121.468 120.921C123.094 119.7 124.28 117.983 124.85 116.029C123.123 117.606 120.87 118.479 118.533 118.476Z" fill="#3F3D56"/>
<path d="M34.1571 157.571L37.4661 157.571L39.0406 144.781L34.1562 144.782L34.1571 157.571Z" fill="#FFB8B8"/>
<path d="M43.8477 160.65L33.4472 160.65L33.447 156.624L39.8291 156.624C40.8949 156.624 41.917 157.048 42.6706 157.803C43.4242 158.558 43.8476 159.582 43.8477 160.65Z" fill="#2F2E41"/>
<path d="M22.2801 157.571L25.5891 157.571L27.1636 144.781L22.2793 144.782L22.2801 157.571Z" fill="#FFB8B8"/>
<path d="M31.9707 160.65L21.5703 160.65L21.5701 156.624L27.9522 156.624C29.0179 156.624 30.04 157.048 30.7936 157.803C31.5472 158.558 31.9707 159.582 31.9707 160.65Z" fill="#2F2E41"/>
<path d="M25.1718 153.638L21.9394 153.468C21.7727 153.459 21.6095 153.417 21.459 153.344C21.3086 153.272 21.174 153.17 21.0631 153.045C20.9522 152.92 20.8671 152.775 20.8128 152.617C20.7585 152.458 20.736 152.291 20.7467 152.124L24.6101 109.264L42.4012 114.074L44.1153 113.606L38.755 151.549C38.7094 151.834 38.5679 152.095 38.354 152.289C38.1401 152.483 37.8666 152.598 37.5786 152.615L34.0942 152.778C33.92 152.788 33.7456 152.761 33.5822 152.7C33.4187 152.639 33.2698 152.544 33.1447 152.422C33.0196 152.3 32.9211 152.154 32.8554 151.992C32.7897 151.83 32.7583 151.656 32.7631 151.481L33.3944 128.709C33.3974 128.603 33.3609 128.501 33.2921 128.421C33.2233 128.341 33.1272 128.29 33.0228 128.278C32.9184 128.266 32.8132 128.293 32.7279 128.355C32.6426 128.417 32.5835 128.508 32.5622 128.611L26.4735 152.632C26.416 152.917 26.2617 153.173 26.0368 153.357C25.8119 153.541 25.5303 153.641 25.2401 153.64C25.2175 153.64 25.1947 153.639 25.1718 153.638Z" fill="#2F2E41"/>
<path d="M34.7508 74.1951C38.4122 74.1951 41.3804 71.2209 41.3804 67.5521C41.3804 63.8832 38.4122 60.9091 34.7508 60.9091C31.0893 60.9091 28.1211 63.8832 28.1211 67.5521C28.1211 71.2209 31.0893 74.1951 34.7508 74.1951Z" fill="#FFB8B8"/>
<path d="M23.7128 87.0688L24.4417 102.828L24.7053 108.562C24.7158 108.812 24.8003 109.052 24.9482 109.253C25.096 109.455 25.3003 109.607 25.5351 109.691L42.6311 115.897C42.7692 115.948 42.9156 115.974 43.0629 115.973C43.2313 115.973 43.3981 115.94 43.5534 115.875C43.7087 115.81 43.8493 115.714 43.9668 115.593C44.0843 115.472 44.1763 115.329 44.2373 115.171C44.2983 115.014 44.327 114.846 44.3218 114.678L43.6209 86.3412C43.5748 84.0164 42.7208 81.7805 41.2059 80.019C39.691 78.2575 37.6102 77.0807 35.3223 76.6917C35.157 76.6664 34.9887 76.6411 34.8205 76.6186C33.4018 76.4422 31.9617 76.5793 30.6016 77.0205C29.2415 77.4617 27.9945 78.1961 26.9481 79.1722C25.8646 80.1707 25.0133 81.3955 24.4542 82.76C23.8951 84.1246 23.6421 85.5955 23.7128 87.0688Z" fill="#CCCCCC"/>
<path d="M50.7974 112.752C50.3931 112.626 50.0236 112.408 49.7186 112.113C49.4136 111.819 49.1815 111.458 49.0407 111.058C48.8999 110.657 48.8544 110.23 48.9078 109.809C48.9612 109.388 49.112 108.986 49.3483 108.634L43.5508 100.909L48.5537 100.599L53.292 107.982C53.7993 108.375 54.1523 108.934 54.2891 109.562C54.4259 110.19 54.3377 110.846 54.0401 111.415C53.7425 111.984 53.2544 112.43 52.6615 112.674C52.0686 112.919 51.4086 112.946 50.7974 112.752Z" fill="#FFB8B8"/>
<path d="M46.7225 107.236C46.5689 107.173 46.4292 107.081 46.3114 106.964C46.1937 106.847 46.1003 106.708 46.0366 106.555L37.3022 85.7031C37.1309 85.2949 37.0414 84.8568 37.0391 84.4139C37.0368 83.971 37.1216 83.532 37.2886 83.1219C37.4557 82.7119 37.7018 82.3389 38.0128 82.0241C38.3239 81.7094 38.6937 81.4592 39.1013 81.2878C39.5089 81.1164 39.9461 81.0272 40.3881 81.0252C40.8302 81.0232 41.2682 81.1085 41.6773 81.2762C42.0864 81.444 42.4585 81.6908 42.7723 82.0027C43.0862 82.3146 43.3356 82.6854 43.5063 83.0939L52.2406 103.946C52.3697 104.255 52.3712 104.603 52.2446 104.913C52.1181 105.223 51.8739 105.471 51.5657 105.601L47.6881 107.231C47.5354 107.296 47.3715 107.33 47.2057 107.331C47.04 107.331 46.8757 107.299 46.7225 107.236Z" fill="#CCCCCC"/>
<path d="M32.6196 106.5L41.0087 90.4052C41.1705 90.0956 41.4482 89.863 41.7809 89.7584C42.1136 89.6538 42.4742 89.6857 42.7835 89.8471L54.9602 96.2194C55.2692 96.3815 55.5013 96.6597 55.6057 96.9931C55.7101 97.3265 55.6783 97.6878 55.5172 97.9977L47.1281 114.093C46.9663 114.403 46.6886 114.635 46.3559 114.74C46.0232 114.844 45.6626 114.813 45.3534 114.651L33.1766 108.279C32.8677 108.117 32.6355 107.838 32.5311 107.505C32.4267 107.172 32.4585 106.81 32.6196 106.5Z" fill="#3F3D56"/>
<path d="M38.246 99.1469C38.0968 98.7499 37.8571 98.3933 37.546 98.1055C37.2349 97.8178 36.861 97.6069 36.4541 97.4897C36.0472 97.3725 35.6186 97.3523 35.2025 97.4305C34.7864 97.5088 34.3943 97.6835 34.0575 97.9405L26.0195 92.5977L26.0059 97.6202L33.641 101.924C34.0624 102.408 34.6406 102.728 35.274 102.828C35.9074 102.928 36.5557 102.801 37.1051 102.469C37.6545 102.138 38.0699 101.624 38.2785 101.016C38.4871 100.409 38.4756 99.7468 38.246 99.1469Z" fill="#FFB8B8"/>
<path d="M28.0827 100.276L21.5136 95.0624C20.8029 94.8233 20.1608 94.415 19.6423 93.8724C19.1238 93.3299 18.7445 92.6695 18.5368 91.9477C18.3291 91.2259 18.2993 90.4645 18.45 89.7287C18.6007 88.9928 18.9273 88.3046 19.4019 87.7231L25.3664 79.8905C25.7809 79.383 26.3639 79.0419 27.0087 78.9295C27.6535 78.8172 28.3171 78.9411 28.8782 79.2787C29.4393 79.6163 29.8605 80.1449 30.0646 80.768C30.2688 81.391 30.2424 82.0669 29.9902 82.6721L25.2708 90.4075L32.2063 93.7037C32.3676 93.7803 32.5108 93.8904 32.6265 94.0266C32.7422 94.1628 32.8277 94.3221 32.8774 94.4938C32.9271 94.6656 32.9398 94.846 32.9148 95.0231C32.8898 95.2002 32.8275 95.3699 32.7322 95.5211L29.9326 99.9606C29.8379 100.11 29.7129 100.239 29.5657 100.337C29.4184 100.435 29.2522 100.502 29.0778 100.532C29.0709 100.533 29.0639 100.534 29.0569 100.535C28.8855 100.561 28.7106 100.551 28.5431 100.507C28.3755 100.462 28.2188 100.384 28.0827 100.276Z" fill="#CCCCCC"/>
<path d="M29.7418 72.0003C29.7134 71.9169 29.7044 71.8281 29.7155 71.7407C29.7265 71.6533 29.7575 71.5696 29.8058 71.496C29.8542 71.4224 29.9187 71.3609 29.9945 71.3161C30.0703 71.2714 30.1552 71.2446 30.2429 71.2379C30.4225 71.2477 30.5982 71.2938 30.7595 71.3735C30.9207 71.4532 31.0642 71.5649 31.1812 71.7017C31.4211 71.9789 31.7005 72.2192 32.0102 72.415C32.3309 72.5769 32.7659 72.5539 32.9487 72.245C33.1204 71.955 33.0027 71.5667 32.8988 71.2298C32.6343 70.3728 32.4863 69.484 32.4588 68.5874C32.4289 67.5865 32.5698 66.5421 33.1228 65.7615C33.8364 64.754 35.1125 64.3716 36.3202 64.3993C37.5278 64.427 38.7159 64.8006 39.9121 65.0367C40.3251 65.1182 40.8105 65.1599 41.0867 64.8392C41.3804 64.4982 41.2725 63.9463 41.1476 63.4858C40.8235 62.2911 40.4795 61.0558 39.7264 60.0908C38.912 59.0882 37.7488 58.432 36.4709 58.2543C35.244 58.102 33.9986 58.2437 32.837 58.6677C30.9445 59.2654 29.2793 60.4278 28.0639 61.9995C26.8111 63.6709 26.2698 65.7714 26.5583 67.8417C26.8401 69.6448 27.7937 71.2738 29.2267 72.4003L29.7418 72.0003Z" fill="#2F2E41"/>
<path d="M113.708 157.624C111.944 156.854 110.383 155.684 109.148 154.206C107.912 152.729 107.037 150.983 106.59 149.108C106.143 147.233 106.137 145.28 106.573 143.402C107.009 141.524 107.874 139.774 109.1 138.289C107.678 139.329 106.493 140.66 105.624 142.195C104.755 143.729 104.221 145.431 104.059 147.188C103.896 148.944 104.109 150.716 104.681 152.384C105.254 154.052 106.175 155.579 107.381 156.864C108.588 158.148 110.054 159.161 111.681 159.835C113.309 160.508 115.06 160.827 116.82 160.771C118.58 160.714 120.308 160.283 121.888 159.506C123.469 158.729 124.867 157.625 125.989 156.265C124.239 157.547 122.184 158.347 120.029 158.585C117.875 158.824 115.695 158.492 113.708 157.624Z" fill="#3F3D56"/>
</g>
<defs>
<clipPath id="clip0_76_124">
<rect width="228" height="161" fill="white"/>
</clipPath>
</defs>
</svg>
