<svg width="585" height="355" viewBox="0 0 585 355" fill="none" xmlns="http://www.w3.org/2000/svg">
<g clip-path="url(#clip0_92_1181)">
<path d="M462.729 241.71H447.432L447.376 241.655C444.657 238.772 443.433 234.715 444.108 230.816C444.323 229.553 444.729 228.33 445.317 227.179L449.968 218.087L448.123 185.522C448.092 184.919 448.298 184.347 448.712 183.902C449.125 183.466 449.69 183.219 450.294 183.219H453.156C454.333 183.219 455.287 184.141 455.334 185.308L456.583 217.491L463.023 227.544C463.571 228.402 464.016 229.315 464.334 230.26C465.599 233.921 465.138 237.899 463.062 241.17L462.721 241.703H462.729V241.71Z" fill="#3F3D56"/>
<path d="M461.41 239.455C461.267 239.686 461.013 239.82 460.742 239.82H449.103C448.88 239.82 448.658 239.725 448.514 239.558C446.551 237.327 445.684 234.397 446.026 231.546C446.066 231.237 446.296 230.975 446.598 230.895C449.031 230.252 451.965 229.887 455.121 229.887C457.594 229.887 459.923 230.117 461.991 230.522C462.277 230.578 462.507 230.784 462.587 231.062C463.414 233.857 463.024 236.922 461.418 239.455H461.41Z" fill="#6C63FF"/>
<path d="M584.205 248.595H0.795053C0.357774 248.595 0 248.238 0 247.801C0 247.364 0.357774 247.007 0.795053 247.007H584.205C584.642 247.007 585 247.364 585 247.801C585 248.238 584.642 248.595 584.205 248.595Z" fill="#3F3D56"/>
<path d="M171.296 101.105C162.749 98.5482 157.136 92.0686 158.766 86.6372C160.396 81.2058 168.648 78.8712 177.195 81.4281C180.622 82.4048 183.77 84.1835 186.37 86.6213L222.458 97.905L216.797 114.707L181.822 101.796C178.308 102.407 174.699 102.169 171.296 101.097L171.296 101.105Z" fill="#A0616A"/>
<path d="M331.38 105.52L331.817 135.194C331.817 135.194 294.466 134.702 281.395 135.726C268.324 136.759 186.871 106.981 186.871 106.981L200.403 87.8203L290.26 109.482L331.38 105.512V105.52Z" fill="#E6E6E6"/>
<path d="M173.956 65.1655H168.391V140.602H173.956V65.1655Z" fill="#6C63FF"/>
<path d="M194.05 247.801H161.858L161.739 247.674C156.015 241.599 153.439 233.071 154.854 224.86C155.307 222.208 156.158 219.635 157.398 217.213L167.193 198.084L163.305 129.556C163.234 128.286 163.679 127.079 164.554 126.158C165.428 125.237 166.613 124.729 167.885 124.729H173.903C176.376 124.729 178.395 126.658 178.491 129.128L181.107 196.862L194.67 218.015C195.831 219.826 196.761 221.748 197.437 223.733C200.092 231.435 199.122 239.805 194.766 246.689L194.05 247.809L194.05 247.801Z" fill="#3F3D56"/>
<path d="M191.281 243.061C190.979 243.537 190.446 243.831 189.874 243.831H165.37C164.901 243.831 164.44 243.632 164.13 243.283C159.995 238.582 158.175 232.428 158.89 226.425C158.97 225.766 159.455 225.226 160.099 225.059C165.211 223.709 171.389 222.931 178.035 222.931C183.235 222.931 188.148 223.415 192.489 224.265C193.086 224.384 193.578 224.813 193.745 225.393C195.479 231.269 194.66 237.724 191.281 243.061Z" fill="#6C63FF"/>
<path d="M307.525 63.5775L312.295 96.1342L274.133 100.105L276.518 58.019L307.525 63.5775Z" fill="#A0616A"/>
<path d="M271.248 73.2731C285.461 73.2731 296.983 61.7651 296.983 47.5692C296.983 33.3733 285.461 21.8652 271.248 21.8652C257.034 21.8652 245.512 33.3733 245.512 47.5692C245.512 61.7651 257.034 73.2731 271.248 73.2731Z" fill="#A0616A"/>
<path d="M191.059 164.194C183.776 157.666 174.41 156.197 170.133 160.914C165.856 165.631 168.288 174.747 175.571 181.274C178.441 183.926 181.924 185.832 185.732 186.84L216.938 214.101L229.81 198.926L197.682 173.667C196.282 170.006 194.008 166.758 191.059 164.194Z" fill="#A0616A"/>
<path d="M276.52 92.1639L315.477 86.6055L338.534 104.075L340.919 200.157L363.181 353.412L215.301 355C215.301 355 226.432 255.742 231.997 250.183C237.562 244.625 241.538 219.215 241.538 219.215L252.668 109.633L276.52 92.1639Z" fill="#E6E6E6"/>
<path d="M261.813 109.236C261.813 109.236 241.141 107.648 236.371 121.941C231.601 136.235 226.035 183.085 226.035 183.085L213.314 184.673L202.184 172.762L190.258 201.348C190.258 201.348 232.396 247.404 248.297 226.758C264.198 206.112 261.813 109.236 261.813 109.236Z" fill="#E6E6E6"/>
<path d="M315.081 60.8379C315.081 60.8379 315.081 35.3881 317.466 27.4474C319.851 19.5068 306.335 10.772 302.36 2.83136C298.384 -5.10931 273.738 6.00763 263.402 7.59576C253.066 9.1839 253.861 15.5364 247.501 25.8593C241.141 36.1822 253.861 52.0635 263.402 53.6516C272.943 55.2398 269.763 62.3864 276.306 70.327C282.849 78.2677 303.759 70.327 303.759 70.327L306.335 74.2974C306.335 74.2974 300.77 96.5312 311.105 115.589L338.137 122.735C330.187 98.9134 338.932 98.9134 343.917 86.6054C348.902 74.2974 315.081 60.8379 315.081 60.8379Z" fill="#2F2E41"/>
<path d="M504.152 240.908H489.984V217.182H504.152C505.766 217.182 507.062 215.872 507.062 214.26C507.062 212.648 505.758 211.361 504.152 211.353H405.375C403.761 211.353 402.465 212.663 402.465 214.275C402.465 215.887 403.769 217.174 405.375 217.182H417.46V240.908H405.375C403.761 240.908 402.465 242.219 402.465 243.831C402.465 245.443 403.769 246.729 405.375 246.737H504.152C505.766 246.737 507.062 245.427 507.062 243.815C507.062 242.203 505.758 240.916 504.152 240.908ZM423.295 240.908L429.958 223.185L484.141 217.182V240.908H423.295Z" fill="#F2F2F2"/>
</g>
<defs>
<clipPath id="clip0_92_1181">
<rect width="585" height="355" fill="white"/>
</clipPath>
</defs>
</svg>
