<svg width="17" height="177" viewBox="0 0 17 177" fill="none" xmlns="http://www.w3.org/2000/svg">
<path d="M7.97516 3.86238e-05C3.5569 0.0137599 -0.0136827 3.60659 3.86238e-05 8.02484C0.0137599 12.4431 3.60659 16.0137 8.02484 16C12.4431 15.9862 16.0137 12.3934 16 7.97516C15.9862 3.5569 12.3934 -0.0136827 7.97516 3.86238e-05ZM8.47516 161C4.0569 161.014 0.486317 164.607 0.500039 169.025C0.51376 173.443 4.10659 177.014 8.52484 177C12.9431 176.986 16.5137 173.393 16.5 168.975C16.4862 164.557 12.8934 160.986 8.47516 161ZM6.50001 8.00466L6.50962 11.1008L9.50961 11.0915L9.49999 7.99534L6.50001 8.00466ZM6.52885 17.2931L6.54808 23.4854L9.54807 23.4761L9.52884 17.2838L6.52885 17.2931ZM6.56731 29.6777L6.58655 35.87L9.58653 35.8607L9.5673 29.6684L6.56731 29.6777ZM6.60578 42.0624L6.62501 48.2547L9.62499 48.2453L9.60576 42.053L6.60578 42.0624ZM6.64424 54.447L6.66347 60.6393L9.66345 60.63L9.64422 54.4376L6.64424 54.447ZM6.6827 66.8316L6.70193 73.0239L9.70192 73.0146L9.68269 66.8223L6.6827 66.8316ZM6.72116 79.2162L6.74039 85.4085L9.74038 85.3992L9.72115 79.2069L6.72116 79.2162ZM6.75962 91.6008L6.77885 97.7931L9.77884 97.7838L9.75961 91.5915L6.75962 91.6008ZM6.79808 103.985L6.81731 110.178L9.8173 110.168L9.79807 103.976L6.79808 103.985ZM6.83655 116.37L6.85578 122.562L9.85576 122.553L9.83653 116.361L6.83655 116.37ZM6.87501 128.755L6.89424 134.947L9.89422 134.938L9.87499 128.745L6.87501 128.755ZM6.91347 141.139L6.9327 147.332L9.93269 147.322L9.91345 141.13L6.91347 141.139ZM6.95193 153.524L6.97116 159.716L9.97115 159.707L9.95192 153.515L6.95193 153.524ZM6.99039 165.908L7.00001 169.005L9.99999 168.995L9.99038 165.899L6.99039 165.908Z" fill="#CCCCCC"/>
</svg>
